<svg id="Avatar" xmlns="http://www.w3.org/2000/svg" xmlns:xlink="http://www.w3.org/1999/xlink" width="46.234" height="46.234" viewBox="0 0 46.234 46.234">
  <defs>
    <clipPath id="clip-path">
      <circle id="Ellipse_2" data-name="Ellipse 2" cx="23.117" cy="23.117" r="23.117" fill="#753cef"/>
    </clipPath>
  </defs>
  <circle id="Ellipse_1" data-name="Ellipse 1" cx="23.117" cy="23.117" r="23.117" fill="#753cef"/>
  <path id="Ellipse_2-2" data-name="Ellipse 2" d="M23.117,0A23.117,23.117,0,1,1,0,23.117,23.117,23.117,0,0,1,23.117,0Z" fill="#fff"/>
  <g id="Avatar-2" data-name="Avatar" clip-path="url(#clip-path)">
    <g id="Illustration" transform="translate(6.304 6.095)">
      <path id="Vector" d="M8.728,0C-1.354.117.668,6.767.668,6.767a9.279,9.279,0,0,0-.1,6.6l8.159,1.56,8.159-1.56a8.724,8.724,0,0,0-.1-6.6S18.662-.112,8.728,0Z" transform="translate(8.348 0)" fill="#421f1f"/>
      <path id="Vector-2" data-name="Vector" d="M0,0V4.289L2.7,7.108h2.45l2.7-2.819V0L3.921,1.716Z" transform="translate(13.155 20.222)" fill="#f2ad80"/>
      <path id="Vector-3" data-name="Vector" d="M0,3.009a6.175,6.175,0,0,0,7.842.054V0L3.921,1.715,0,0Z" transform="translate(13.155 20.222)" fill="#d99062"/>
      <path id="Vector-4" data-name="Vector" d="M31.065,5.392C29.4,4.082,23.529,2.45,23.529,2.45L21.078,0l-4,2.236L13.074,0l-2.45,2.45S4.519,4.228,3.088,5.392C1.137,6.978.33,8.332.085,11.519a58.538,58.538,0,0,0,.122,7.6H33.943a58.168,58.168,0,0,0,.123-7.6C33.821,8.333,33.042,6.945,31.065,5.392Z" transform="translate(0 23.898)" fill="#20283e"/>
      <path id="Vector-5" data-name="Vector" d="M6.1,16.879h1.05L13.257.254l-.176-.04L6.629,0,.177.214,0,.254Z" transform="translate(10.447 26.135)" fill="#e3d4cf"/>
      <path id="Vector-6" data-name="Vector" d="M4.39,2.284,2.2,0,0,2.284,1.317,4.772.132,13.09,1.67,16.879h1.05L4.257,13.09S3.049,4.784,3.073,4.772Z" transform="translate(14.881 26.135)" fill="#78acc1"/>
      <g id="Group" transform="translate(15.013 32.409)">
        <path id="Vector-7" data-name="Vector" d="M.095,0,0,.668l.232.573L3.239,2.852l.432-1.065Z" transform="translate(0 6.148)" fill="#9ccfe3"/>
        <path id="Vector-8" data-name="Vector" d="M0,1.1,3.649,3.057c-.054-.366-.125-.856-.2-1.412L.156,0Z" transform="translate(0.377 3.073)" fill="#9ccfe3"/>
        <path id="Vector-9" data-name="Vector" d="M0,1.114,2.7,2.56c-.069-.473-.136-.945-.2-1.39L.159,0Z" transform="translate(0.812)" fill="#9ccfe3"/>
      </g>
      <path id="Vector-10" data-name="Vector" d="M3.92,6.826,0,2.45,2.45,0l4,2.236S5.31,4.3,3.92,6.826Z" transform="translate(10.624 23.898)" fill="#fff"/>
      <path id="Vector-11" data-name="Vector" d="M2.533,6.826,6.452,2.45,4,0,0,2.236S1.2,4.375,2.533,6.826Z" transform="translate(17.076 23.898)" fill="#fff"/>
      <path id="Vector-12" data-name="Vector" d="M1.882,0A5.951,5.951,0,0,1,.126,0L0,.888A3.744,3.744,0,0,0,1.963.637C1.924.344,1.892.089,1.882,0Z" transform="translate(16.072 30.906)" fill="#6794a6"/>
      <path id="Vector-13" data-name="Vector" d="M7.04.008A11.166,11.166,0,0,0,2.712.654C0,1.429,0,4.917,0,4.917a64.943,64.943,0,0,0,.387,7.621C.774,14.476,2,17.963,3.3,19a6.048,6.048,0,0,0,3.743,1.162A6.045,6.045,0,0,0,10.781,19c1.292-1.033,2.522-4.521,2.909-6.458a64.7,64.7,0,0,0,.388-7.621s0-3.488-2.711-4.263A11.166,11.166,0,0,0,7.04.008Z" transform="translate(10.037 3.373)" fill="#f2ad80"/>
      <path id="Vector-14" data-name="Vector" d="M.633.089c-1.55.6.086,4.305,1.291,4.994a2.124,2.124,0,0,0,1.895.344L3.13,2.155S2.183-.515.633.089Z" transform="translate(7.331 12.033)" fill="#f2ad80"/>
      <path id="Vector-15" data-name="Vector" d="M3.186.089c1.55.6-.086,4.305-1.291,4.994A2.124,2.124,0,0,1,0,5.427L.689,2.155S1.637-.515,3.186.089Z" transform="translate(23.003 12.033)" fill="#f2ad80"/>
      <path id="Vector-16" data-name="Vector" d="M1.7,0A7.761,7.761,0,0,0,.085,4.8a58.538,58.538,0,0,0,.122,7.6H4.8A41.361,41.361,0,0,0,4.1,6.7,52.244,52.244,0,0,0,1.7,0Z" transform="translate(0.001 30.614)" fill="#10182e"/>
      <path id="Vector-17" data-name="Vector" d="M.7,6.714A41.366,41.366,0,0,0,0,12.419H4.594a58.528,58.528,0,0,0,.122-7.6A7.777,7.777,0,0,0,3.105,0,52.769,52.769,0,0,0,.7,6.714Z" transform="translate(29.35 30.595)" fill="#10182e"/>
      <path id="Vector-18" data-name="Vector" d="M.469.384.329.428,0,12.607l3.842.768-.465,3.29H7.87L1.789,0Z" transform="translate(8.898 26.349)" fill="#344063"/>
      <path id="Vector-19" data-name="Vector" d="M4.6,16.665l-.573-3.29,3.842-.768L7.542.424,6.082,0,0,16.665Z" transform="translate(17.382 26.349)" fill="#344063"/>
      <path id="Vector-20" data-name="Vector" d="M12.453,0c-.289,1.851-.55,3.446-1.331,4.05-.746.575-1.443-.914-1.924-1.3a3.544,3.544,0,0,0-2.3-.613,4.281,4.281,0,0,0-1.985.379c-.605.316-1.369,2.2-2.238,1.53C1.9,3.448,1.4,2.142,1.117.289H0c.043.429.092.808.15,1.1.044.218.1.455.162.707.128.458.276.969.439,1.484C1.327,5.3,2.177,7.142,3.058,7.846A6.048,6.048,0,0,0,6.8,9.008a6.045,6.045,0,0,0,3.743-1.162c1.292-1.033,2.522-4.521,2.909-6.458.059-.292.108-.67.151-1.1Z" transform="translate(10.276 14.521)" fill="#421f1f"/>
      <path id="Vector-21" data-name="Vector" d="M0,6.422a34.4,34.4,0,0,0,1.354,7.944l1.191.309a55.858,55.858,0,0,1-.771-6.633,5.309,5.309,0,0,1,1-4.088C3.564,2.772,6.85,2.8,7.828,2.8s4.264-.023,5.052,1.157a5.308,5.308,0,0,1,1,4.088,55.925,55.925,0,0,1-.771,6.633l1.191-.309a34.416,34.416,0,0,0,1.354-7.944C15.657,2.456,11.744-.071,8.1,0,4.241.077,0,1.954,0,6.422Z" transform="translate(9.248 2.179)" fill="#421f1f"/>
    </g>
  </g>
</svg>
