<svg xmlns="http://www.w3.org/2000/svg" viewBox="0 0 60 62"><defs><style>.cls-1{fill:none;}.cls-2{fill:#242424;}.cls-3{fill:#c82345;stroke:#fff;stroke-miterlimit:10;stroke-width:1.08px;}</style></defs><g id="Layer_2" data-name="Layer 2"><g id="Layer_1-2" data-name="Layer 1"><g id="Group"><rect id="Rectangle" class="cls-1" width="60" height="62"/><path id="Shape" class="cls-2" d="M25.83,41.79H20.12a3,3,0,0,1-.29-5.95,1.41,1.41,0,0,1,.29,0v-6a9.94,9.94,0,0,1,6.75-9.29v-.13a3.64,3.64,0,0,1,7.27,0v.13a10,10,0,0,1,6.75,9.29v6a3,3,0,0,1,.26,5.95h-6a4.7,4.7,0,0,1-9.34,0Z"/><circle id="Oval" class="cls-3" cx="37.82" cy="23.82" r="3.78"/></g></g></g></svg>