<svg xmlns="http://www.w3.org/2000/svg" width="28" height="28" viewBox="0 0 28 28">
  <g id="Group_2490" data-name="Group 2490" transform="translate(6050 13424)">
    <rect id="Rectangle_573" data-name="Rectangle 573" width="28" height="28" rx="14" transform="translate(-6050 -13424)" fill="#fff"/>
    <g id="Group_2489" data-name="Group 2489" transform="translate(-6042.723 -13414.72)">
      <path id="Path_2131" data-name="Path 2131" d="M-1141.185,845.951c.077-.091.116-.143.161-.188l6.3-6.3a1.015,1.015,0,0,1,1.224-.245,1.4,1.4,0,0,1,.3.214c.142.129.274.269.409.406a1.026,1.026,0,0,1,0,1.555q-.97.975-1.946,1.947-2.947,2.947-5.894,5.9a.693.693,0,0,1-.765.219.808.808,0,0,1-.29-.189q-1.9-1.891-3.792-3.789a1.02,1.02,0,0,1,0-1.52c.142-.145.285-.289.43-.43a1.017,1.017,0,0,1,1.486.005q1.13,1.122,2.252,2.251A1.72,1.72,0,0,1-1141.185,845.951Z" transform="translate(1145.818 -839.104)" fill="#d5123a"/>
    </g>
  </g>
</svg>
