<svg id="Group_2877" data-name="Group 2877" xmlns="http://www.w3.org/2000/svg" width="11.168" height="10.501" viewBox="0 0 11.168 10.501">
  <path id="Path_1362" data-name="Path 1362" d="M-1337,1740.722c.121-.232.286-.321.475-.235a.768.768,0,0,1,.2.178,1.114,1.114,0,0,1,.093.132c.013-.053.024-.088.032-.124a5.132,5.132,0,0,1,3.741-4.032,5.194,5.194,0,0,1,5.487,1.777,5.061,5.061,0,0,1,1.133,3.508,5.026,5.026,0,0,1-2.513,4.221,5.065,5.065,0,0,1-4.982.26,4.7,4.7,0,0,1-1.831-1.527.349.349,0,0,1,.055-.512.352.352,0,0,1,.506.1,4.2,4.2,0,0,0,2.794,1.7,4.531,4.531,0,0,0,4.972-2.834,4.526,4.526,0,0,0-1.974-5.59,4.549,4.549,0,0,0-5.6.881,4.544,4.544,0,0,0-1.119,2.276.077.077,0,0,0,0,.021l.029.029c.053-.066.1-.136.161-.2a.347.347,0,0,1,.505-.019.347.347,0,0,1-.009.506q-.425.431-.856.856a.336.336,0,0,1-.537-.046c-.238-.348-.469-.7-.7-1.051-.022-.033-.039-.068-.058-.1Z" transform="translate(1337 -1736.438)" fill="#9e192d"/>
  <path id="Path_1363" data-name="Path 1363" d="M-1150.687,1804.405c0,.472,0,.945,0,1.417a.178.178,0,0,0,.082.162q.906.681,1.809,1.366a.4.4,0,0,1,.183.259.332.332,0,0,1-.16.355.335.335,0,0,1-.4-.022c-.283-.21-.564-.423-.846-.634-.4-.3-.789-.595-1.187-.888a.408.408,0,0,1-.179-.352q0-1.542,0-3.085a.35.35,0,0,1,.351-.376.352.352,0,0,1,.346.381C-1150.687,1803.46-1150.687,1803.933-1150.687,1804.405Z" transform="translate(1156.795 -1800.679)" fill="#9e192d"/>
</svg>
