<svg xmlns="http://www.w3.org/2000/svg" viewBox="0 0 60 61"><defs><style>.cls-1{fill:#d5123a;}.cls-2{fill:#fff;}</style></defs><g id="Layer_2" data-name="Layer 2"><g id="Layer_1-2" data-name="Layer 1"><g id="Group_129-6" data-name="Group 129-6"><rect id="Rectangle_3-10" data-name="Rectangle 3-10" class="cls-1" width="60" height="61" rx="19"/></g><g id="Group_1864-2" data-name="Group 1864-2"><path id="Path_2157-2" data-name="Path 2157-2" class="cls-2" d="M11.65,41H47.31v1.17H11.65Z"/><path id="Path_2158-2" data-name="Path 2158-2" class="cls-2" d="M40.2,28.77V18.67c0-.75.16-.91.93-.91h3.58c.64,0,.83.19.83.83V38.93c0,.66-.19.84-.85.84H41c-.64,0-.83-.19-.83-.83ZM41.42,19V38.56h2.91V19Z"/><path id="Path_2159-2" data-name="Path 2159-2" class="cls-2" d="M33.66,32.92v-6c0-.65.17-.83.82-.83h3.73c.6,0,.8.19.8.79V39c0,.6-.21.81-.8.81H34.45c-.59,0-.79-.21-.79-.81Zm1.22-5.62V38.56h2.91V27.3Z"/><path id="Path_2160-2" data-name="Path 2160-2" class="cls-2" d="M27.11,35v-4c0-.59.2-.8.8-.8h3.76c.58,0,.8.22.8.8V39c0,.6-.21.81-.82.81H27.92c-.61,0-.8-.2-.8-.82C27.11,37.64,27.11,36.33,27.11,35Zm1.22-3.58v7.13h3V34.66c0-1,0-1.95,0-2.93a.39.39,0,0,0-.18-.28Z"/><path id="Path_2161-2" data-name="Path 2161-2" class="cls-2" d="M20.57,36.5V34c0-.54.21-.76.75-.76h3.84c.54,0,.76.22.76.76q0,2.5,0,5c0,.54-.22.77-.75.77H21.33c-.54,0-.76-.22-.76-.76Zm1.2,2.07h2.94V34.44H21.77Z"/><path id="Path_2162-2" data-name="Path 2162-2" class="cls-2" d="M16.7,35c.65,0,1.3,0,1.95,0s.72.22.72.72q0,1.65,0,3.3c0,.5-.22.73-.72.73h-3.9a.63.63,0,0,1-.73-.53.67.67,0,0,1,0-.2c0-1.1,0-2.2,0-3.31,0-.5.22-.71.73-.71S16.05,35,16.7,35Zm-1.47,1.2v2.34h2.94V36.22Z"/></g></g></g></svg>