<svg xmlns="http://www.w3.org/2000/svg" viewBox="0 0 61 61"><defs><style>.cls-1{fill:#ffe2e2;}.cls-2{fill:#c97584;}</style></defs><g id="Layer_2" data-name="Layer 2"><g id="Layer_1-2" data-name="Layer 1"><g id="Group_129-2" data-name="Group 129-2"><rect id="Rectangle_3-6" data-name="Rectangle 3-6" class="cls-1" width="61" height="61" rx="19"/></g><g id="Group_1864" data-name="Group 1864"><path id="Path_2157" data-name="Path 2157" class="cls-2" d="M12,41H47.7v1.18H12Z"/><path id="Path_2158" data-name="Path 2158" class="cls-2" d="M40.59,28.77V18.67c0-.75.16-.91.93-.91H45.1c.64,0,.83.19.83.83V38.93c0,.66-.19.84-.85.84H41.42c-.64,0-.83-.19-.83-.83ZM41.81,19V38.56h2.91V19Z"/><path id="Path_2159" data-name="Path 2159" class="cls-2" d="M34.05,32.91v-6c0-.65.17-.82.82-.82H38.6c.6,0,.8.18.8.79V39c0,.6-.21.8-.8.8H34.84c-.59,0-.79-.2-.79-.8Zm1.22-5.61V38.56h2.91V27.3Z"/><path id="Path_2160" data-name="Path 2160" class="cls-2" d="M27.51,35v-4c0-.59.2-.8.79-.8,1.25,0,2.51,0,3.76,0,.58,0,.8.22.8.8V39c0,.61-.21.82-.82.82H28.31c-.61,0-.8-.2-.8-.82Zm1.21-3.58v7.13h3V34.66c0-1,0-1.95,0-2.93,0-.1-.12-.28-.18-.28-.91,0-1.83,0-2.75,0Z"/><path id="Path_2161" data-name="Path 2161" class="cls-2" d="M21,36.5V34c0-.55.21-.76.75-.76h3.84c.54,0,.76.22.77.75v5c0,.54-.23.77-.76.77H21.72c-.54,0-.76-.22-.76-.76Zm1.21,2.07H25.1V34.44H22.17Z"/><path id="Path_2162" data-name="Path 2162" class="cls-2" d="M17.09,35c.65,0,1.3,0,1.95,0s.72.22.73.72V39a.64.64,0,0,1-.73.73h-3.9a.64.64,0,0,1-.73-.53.67.67,0,0,1,0-.2c0-1.1,0-2.2,0-3.31,0-.5.22-.71.73-.72Zm-1.47,1.2v2.34h2.94V36.22Z"/></g></g></g></svg>