<svg xmlns="http://www.w3.org/2000/svg" viewBox="0 0 13.97 15.9"><g id="Layer_2" data-name="Layer 2"><g id="Layer_1-2" data-name="Layer 1"><g id="Group_1668" data-name="Group 1668"><path id="Path_2089" data-name="Path 2089" d="M3,15.89a1.69,1.69,0,0,1-.8-.4,1.63,1.63,0,0,1-.44-1.08c-.13-1.61-.27-3.22-.4-4.83C1.26,8.27,1.15,7,1.05,5.64,1,5.33,1,5,1,4.7a.21.21,0,0,0-.11-.15A1.4,1.4,0,0,1,1.08,1.9a2.71,2.71,0,0,1,.41,0H3.72V1.45A1.41,1.41,0,0,1,5.07,0H8.79a1.4,1.4,0,0,1,1.45,1.35v.51h2.28a1.39,1.39,0,0,1,1.39,1,1.37,1.37,0,0,1-.76,1.63.23.23,0,0,0-.16.21c-.08,1.08-.17,2.17-.26,3.25s-.18,2.13-.27,3.2-.18,2.12-.26,3.18a1.48,1.48,0,0,1-.64,1.28,4,4,0,0,1-.6.26ZM1.9,4.66c.07.9.15,1.78.22,2.67l.3,3.55c.1,1.18.19,2.36.29,3.54,0,.4.19.54.59.54h7.51a.46.46,0,0,0,.43-.4l0-.26c.05-.69.11-1.36.16-2L11.7,9l.24-2.82c0-.51.08-1,.12-1.55ZM7,3.72h5.63a.46.46,0,0,0,.42-.5.66.66,0,0,0,0-.15.53.53,0,0,0-.52-.28H1.35a.47.47,0,0,0,0,.93H7ZM9.31,1.86v-.4A.48.48,0,0,0,8.89.93H5.17a.46.46,0,0,0-.5.39,4.86,4.86,0,0,0,0,.54Z"/><path id="Path_2090" data-name="Path 2090" d="M5.05,12.46c0,.36,0,.72.06,1.08a.46.46,0,0,1-.43.49.59.59,0,0,1-.23,0,.45.45,0,0,1-.26-.4c-.07-1-.13-2-.19-3L3.76,6.78c0-.24,0-.47,0-.7a.46.46,0,0,1,.42-.5h0A.47.47,0,0,1,4.65,6h0Q4.86,9.24,5.05,12.46Z"/><path id="Path_2091" data-name="Path 2091" d="M8.9,12.69c.11-1.76.21-3.52.32-5.28l.09-1.33a.47.47,0,0,1,.45-.5h0a.47.47,0,0,1,.45.49v0c0,.72-.09,1.43-.13,2.15l-.18,2.8c0,.84-.1,1.67-.16,2.51a.46.46,0,0,1-.48.44h0a.46.46,0,0,1-.44-.48h0c0-.28,0-.57.05-.85Z"/><path id="Path_2092" data-name="Path 2092" d="M6.52,9.8V6.09a.45.45,0,0,1,.41-.5.44.44,0,0,1,.2,0A.45.45,0,0,1,7.44,6a.38.38,0,0,1,0,.15v7.26c0,.38-.17.59-.46.59s-.47-.21-.47-.59Z"/></g></g></g></svg>