<svg id="Groupe_1668" data-name="Groupe 1668" xmlns="http://www.w3.org/2000/svg" width="16.905" height="19.241" viewBox="0 0 16.905 19.241">
  <path id="Tracé_2089" data-name="Tracé 2089" d="M-3592.974-5714.758a2,2,0,0,1-.971-.491,1.942,1.942,0,0,1-.529-1.307c-.157-1.947-.321-3.893-.481-5.839q-.2-2.385-.391-4.771c-.031-.38-.061-.762-.105-1.14a.272.272,0,0,0-.131-.187,1.7,1.7,0,0,1-1.031-1.643,1.681,1.681,0,0,1,1.3-1.556,2.371,2.371,0,0,1,.5-.048c.827,0,1.653,0,2.48,0h.219c0-.18,0-.34,0-.5a1.7,1.7,0,0,1,1.757-1.753q2.188-.006,4.377,0a1.7,1.7,0,0,1,1.756,1.753c0,.161,0,.321,0,.5h.219c.845,0,1.69,0,2.536,0a1.682,1.682,0,0,1,1.684,1.236,1.669,1.669,0,0,1-.917,1.983.262.262,0,0,0-.193.252c-.1,1.309-.214,2.62-.323,3.929q-.163,1.937-.324,3.873c-.106,1.286-.22,2.569-.312,3.855a1.819,1.819,0,0,1-.771,1.545,4.384,4.384,0,0,1-.734.309Zm-1.34-13.591c.089,1.083.176,2.155.265,3.227q.179,2.152.359,4.3c.118,1.429.232,2.857.354,4.285.041.482.233.648.713.648h8.922c.056,0,.113,0,.168,0a.557.557,0,0,0,.52-.482c.016-.106.025-.212.033-.317.069-.824.135-1.646.2-2.47q.162-1.955.325-3.91.142-1.7.284-3.405c.052-.622.1-1.244.152-1.876Zm6.15-1.139h6.594a2.031,2.031,0,0,0,.225,0,.56.56,0,0,0,.452-.795.607.607,0,0,0-.621-.33q-6.65.006-13.3,0a1.29,1.29,0,0,0-.168,0,.565.565,0,0,0-.506.559.565.565,0,0,0,.507.559,2.031,2.031,0,0,0,.225,0Zm2.818-2.26c0-.174,0-.329,0-.485a.574.574,0,0,0-.64-.636c-.532,0-1.063,0-1.595,0q-1.389,0-2.777,0a.555.555,0,0,0-.61.466,5.514,5.514,0,0,0,0,.655Z" transform="translate(3596.619 5733.999)" fill="#e10606"/>
  <path id="Tracé_2090" data-name="Tracé 2090" d="M-3567.263-5684.058c.027.438.065.874.077,1.311a.556.556,0,0,1-.8.531.539.539,0,0,1-.316-.477q-.117-1.826-.228-3.652-.144-2.295-.287-4.589c-.017-.282-.042-.562-.048-.843a.56.56,0,0,1,.542-.6.567.567,0,0,1,.582.563Q-3567.5-5687.935-3567.263-5684.058Z" transform="translate(3573.38 5699.143)" fill="#e10606"/>
  <path id="Tracé_2091" data-name="Tracé 2091" d="M-3530.669-5683.778q.195-3.194.392-6.388c.033-.536.071-1.074.1-1.611a.575.575,0,0,1,.585-.6.569.569,0,0,1,.541.656c-.049.868-.106,1.736-.16,2.6q-.106,1.694-.212,3.39c-.063,1.012-.123,2.023-.19,3.034a.559.559,0,0,1-.589.533.556.556,0,0,1-.532-.588c.01-.344.04-.687.061-1.031Z" transform="translate(3541.444 5699.144)" fill="#e10606"/>
  <path id="Tracé_2092" data-name="Tracé 2092" d="M-3548.089-5687.271q0-2.246,0-4.49a.563.563,0,0,1,.747-.585.547.547,0,0,1,.377.491,1.728,1.728,0,0,1,0,.188v8.792c0,.451-.208.712-.564.712s-.563-.262-.563-.712Z" transform="translate(3555.979 5699.147)" fill="#e10606"/>
</svg>
