<svg xmlns="http://www.w3.org/2000/svg" width="37" height="38" viewBox="0 0 37 38">
  <g id="Group_2189" data-name="Group 2189" transform="translate(-1544.072 -528)">
    <g id="Group_174" data-name="Group 174" transform="translate(1544.13 528)">
      <ellipse id="Ellipse_15" data-name="Ellipse 15" cx="18.5" cy="19" rx="18.5" ry="19" transform="translate(-0.059 0)" fill="#ffe9e9"/>
    </g>
    <g id="Group_1668" data-name="Group 1668" transform="translate(1555.667 539.052)">
      <path id="Path_2089" data-name="Path 2089" d="M-3593.608-5718.1a1.649,1.649,0,0,1-.8-.405,1.607,1.607,0,0,1-.437-1.08c-.13-1.608-.266-3.215-.4-4.823q-.162-1.97-.323-3.941c-.026-.313-.05-.629-.087-.941a.223.223,0,0,0-.108-.154,1.407,1.407,0,0,1-.851-1.357,1.39,1.39,0,0,1,1.075-1.286,1.908,1.908,0,0,1,.416-.039c.683,0,1.365,0,2.049,0h.181c0-.149,0-.281,0-.415a1.4,1.4,0,0,1,1.451-1.447q1.808-.006,3.616,0a1.4,1.4,0,0,1,1.451,1.447c0,.134,0,.266,0,.415h.18c.7,0,1.4,0,2.1,0a1.389,1.389,0,0,1,1.391,1.021,1.378,1.378,0,0,1-.758,1.638.217.217,0,0,0-.159.208c-.085,1.082-.177,2.164-.267,3.246s-.179,2.133-.268,3.2-.182,2.123-.258,3.186a1.5,1.5,0,0,1-.637,1.276,3.637,3.637,0,0,1-.606.255Zm-1.107-11.227c.074.895.145,1.78.219,2.665q.148,1.777.3,3.555c.1,1.181.192,2.36.292,3.54.033.4.193.535.589.535h7.371c.046,0,.093,0,.139,0a.461.461,0,0,0,.43-.4c.013-.088.021-.176.027-.263.057-.681.111-1.36.167-2.04q.133-1.614.269-3.23.117-1.406.235-2.812c.042-.514.083-1.028.126-1.55Zm5.08-.941h5.448a1.469,1.469,0,0,0,.186,0,.462.462,0,0,0,.373-.656.5.5,0,0,0-.513-.272q-5.493,0-10.988,0a1.1,1.1,0,0,0-.139,0,.466.466,0,0,0-.418.462.465.465,0,0,0,.418.461,1.478,1.478,0,0,0,.186,0Zm2.328-1.866c0-.145,0-.272,0-.4a.475.475,0,0,0-.529-.525h-3.612a.459.459,0,0,0-.5.385,4.6,4.6,0,0,0,0,.542Z" transform="translate(3596.618 5733.999)" fill="#e10606"/>
      <path id="Path_2090" data-name="Path 2090" d="M-3567.542-5685.5c.022.362.054.722.064,1.083a.46.46,0,0,1-.664.439.448.448,0,0,1-.261-.394q-.1-1.508-.188-3.017-.119-1.9-.237-3.791c-.014-.232-.034-.465-.039-.7a.462.462,0,0,1,.448-.494.468.468,0,0,1,.48.465Q-3567.741-5688.708-3567.542-5685.5Z" transform="translate(3572.595 5697.965)" fill="#e10606"/>
      <path id="Path_2091" data-name="Path 2091" d="M-3530.68-5685.273q.161-2.638.324-5.276c.027-.443.058-.887.085-1.331a.475.475,0,0,1,.483-.5.47.47,0,0,1,.447.542c-.041.718-.088,1.434-.132,2.151q-.088,1.4-.175,2.8c-.052.835-.1,1.671-.157,2.506a.461.461,0,0,1-.486.44.46.46,0,0,1-.44-.486c.008-.284.033-.567.05-.852Z" transform="translate(3539.581 5697.967)" fill="#e10606"/>
      <path id="Path_2092" data-name="Path 2092" d="M-3548.089-5688.16q0-1.854,0-3.708a.465.465,0,0,1,.617-.483.452.452,0,0,1,.312.405,1.378,1.378,0,0,1,0,.156v7.263c0,.373-.171.589-.466.589s-.465-.216-.465-.589Z" transform="translate(3554.607 5697.97)" fill="#e10606"/>
    </g>
  </g>
</svg>
