<svg xmlns="http://www.w3.org/2000/svg" width="19.085" height="19.081" viewBox="0 0 19.085 19.081">
  <g id="Groupe_1657" data-name="Groupe 1657" transform="translate(0 0)">
    <path id="Tracé_1367" data-name="Tracé 1367" d="M1812.342,1666.7a3.775,3.775,0,0,1-.241.793,5.288,5.288,0,0,1-.792,1.171q-6.1,6.134-12.221,12.241a1.385,1.385,0,0,1-.763.37c-1.326.258-2.65.53-3.974.789a.887.887,0,0,1-1.073-1.073c.269-1.371.531-2.745.827-4.111a1.49,1.49,0,0,1,.4-.679q5.114-5.138,10.247-10.258c.614-.613,1.235-1.219,1.839-1.841a3.386,3.386,0,0,1,1.982-1.061.264.264,0,0,0,.071-.04h.84a.638.638,0,0,0,.125.05,3.265,3.265,0,0,1,2.122,1.327,4.151,4.151,0,0,1,.61,1.479Zm-17.05,13.338c.124-.015.2-.02.267-.033.713-.143,1.428-.277,2.137-.435a.924.924,0,0,0,.421-.239q4.729-4.715,9.448-9.442c.071-.07.137-.143.178-.186l-2.1-2.1a.562.562,0,0,0-.064.052q-4.823,4.821-9.643,9.644a.463.463,0,0,0-.132.2C1795.633,1678.328,1795.468,1679.16,1795.292,1680.034Zm13.8-11.658.925-.942a2.755,2.755,0,0,0,.208-.226,1.488,1.488,0,0,0-.082-1.947,1.438,1.438,0,0,0-1.907-.209,16.2,16.2,0,0,0-1.27,1.2Z" transform="translate(-1793.257 -1663)" fill="#d9aa0c"/>
  </g>
</svg>
