<svg xmlns="http://www.w3.org/2000/svg" width="37" height="38" viewBox="0 0 37 38">
  <g id="Group_1975" data-name="Group 1975" transform="translate(0 0)">
    <ellipse id="Ellipse_15" data-name="Ellipse 15" cx="18.5" cy="19" rx="18.5" ry="19" transform="translate(0 0)" fill="#fbf6e5"/>
    <g id="Group_1657" data-name="Group 1657" transform="translate(10.731 11.102)">
      <path id="Path_1367" data-name="Path 1367" d="M1809.057,1666.06a3.134,3.134,0,0,1-.2.657,4.372,4.372,0,0,1-.656.969q-5.047,5.078-10.117,10.134a1.146,1.146,0,0,1-.631.307c-1.1.214-2.194.438-3.29.653a.734.734,0,0,1-.889-.888c.222-1.135.439-2.272.685-3.4a1.232,1.232,0,0,1,.332-.562q4.233-4.254,8.483-8.492c.508-.508,1.022-1.009,1.522-1.524a2.8,2.8,0,0,1,1.641-.878A.214.214,0,0,0,1806,1663h.7a.531.531,0,0,0,.1.042,2.7,2.7,0,0,1,1.757,1.1,3.438,3.438,0,0,1,.5,1.224Zm-14.115,11.042c.1-.012.162-.016.221-.028.59-.118,1.182-.229,1.77-.36a.763.763,0,0,0,.349-.2q3.915-3.9,7.822-7.816c.059-.058.114-.119.148-.154l-1.738-1.739a.487.487,0,0,0-.053.043q-3.993,3.991-7.983,7.984a.385.385,0,0,0-.109.169C1795.224,1675.69,1795.087,1676.378,1794.941,1677.1Zm11.425-9.651.766-.78a2.308,2.308,0,0,0,.173-.187,1.232,1.232,0,0,0-.068-1.611,1.19,1.19,0,0,0-1.579-.173,13.392,13.392,0,0,0-1.051.99Z" transform="translate(-1793.257 -1663)" fill="#d8a600"/>
    </g>
  </g>
</svg>
