<svg xmlns="http://www.w3.org/2000/svg" viewBox="0 0 15.8 15.8"><g id="Layer_2" data-name="Layer 2"><g id="Layer_1-2" data-name="Layer 1"><g id="Group_1657" data-name="Group 1657"><path id="Path_1367" data-name="Path 1367" d="M15.8,3.06a3,3,0,0,1-.2.66,4.45,4.45,0,0,1-.65,1Q9.9,9.76,4.83,14.82a1.14,1.14,0,0,1-.63.31l-3.29.65A.73.73,0,0,1,0,15.24a.69.69,0,0,1,0-.35c.22-1.13.44-2.27.69-3.4A1.15,1.15,0,0,1,1,10.93Q5.27,6.67,9.52,2.44c.51-.51,1-1,1.52-1.53A2.76,2.76,0,0,1,12.68,0l.07,0h.7l.1,0a2.7,2.7,0,0,1,1.75,1.1,3.23,3.23,0,0,1,.5,1.23ZM1.69,14.1a1.06,1.06,0,0,0,.22,0c.59-.11,1.18-.22,1.77-.36a.73.73,0,0,0,.35-.2q3.91-3.9,7.82-7.81L12,5.54,10.26,3.81a.1.1,0,0,0,0,0l-8,8a.36.36,0,0,0-.11.17c-.15.69-.29,1.38-.43,2.1ZM13.11,4.45l.77-.78a1.54,1.54,0,0,0,.17-.19A1.24,1.24,0,0,0,14,1.87a1.2,1.2,0,0,0-1.58-.17,12.29,12.29,0,0,0-1.05,1Z"/></g></g></g></svg>