<svg xmlns="http://www.w3.org/2000/svg" width="27.064" height="25.355" viewBox="0 0 27.064 25.355">
  <g id="Group_2707" data-name="Group 2707" transform="translate(-25.328 -15.7)">
    <g id="Group_1715" data-name="Group 1715" transform="translate(25.329 15.7)">
      <g id="Group_1714" data-name="Group 1714">
        <path id="Path_2132" data-name="Path 2132" d="M3936,465.127V446.1a1.1,1.1,0,0,1,.853-.653c1.612-.283,3.217-.6,4.825-.9q4.253-.8,8.506-1.6a.841.841,0,0,1,1.037.835c.011.493,0,.986,0,1.48v1.045h10.8c.733,0,1.038.307,1.038,1.046v16.515c0,.741-.3,1.046-1.037,1.047h-10.8c0,.841,0,1.642,0,2.443a.857.857,0,0,1-1.091.906q-6.575-1.231-13.151-2.455A1.165,1.165,0,0,1,3936,465.127Zm15.235-5.286c.836,0,1.646,0,2.456,0a.848.848,0,1,1-.008,1.689c-.722,0-1.445,0-2.167,0h-.278v1.675h10.117V448.013H3951.24v1.679c.825,0,1.634,0,2.443,0a.848.848,0,1,1,0,1.689c-.722,0-1.445,0-2.167,0h-.277v1.692c.821,0,1.622,0,2.423,0a.849.849,0,1,1,.01,1.69c-.722,0-1.445,0-2.167,0h-.271v1.692h2.255c.713,0,1.107.3,1.112.839s-.394.852-1.1.852h-2.273Zm-6.273-4.456c.06-.081.106-.145.154-.207q1.24-1.595,2.481-3.189a.888.888,0,0,0,.217-.808.811.811,0,0,0-.65-.622.838.838,0,0,0-.876.358l-2.27,2.918c-.061.079-.127.154-.2.239-.108-.121-.191-.212-.272-.3-.609-.7-1.212-1.4-1.83-2.084a.829.829,0,0,0-1.2-.087.839.839,0,0,0-.055,1.207c.112.136.231.266.347.4l1.953,2.235c-.058.079-.108.15-.161.218q-1.061,1.366-2.123,2.731a.891.891,0,0,0-.224.782.809.809,0,0,0,.633.637.824.824,0,0,0,.9-.347q.959-1.228,1.914-2.459c.063-.081.128-.159.2-.253l.366.416q1.009,1.153,2.017,2.306a.872.872,0,0,0,.884.348.839.839,0,0,0,.447-1.389c-.481-.573-.983-1.129-1.475-1.692Z" transform="translate(-3936 -442.932)" fill="#fff"/>
        <path id="Path_2133" data-name="Path 2133" d="M4412.508,602.607c-.281,0-.563.008-.844,0a.843.843,0,0,1-.835-.846.833.833,0,0,1,.815-.837q.871-.024,1.742,0a.841.841,0,0,1-.007,1.683C4413.089,602.616,4412.8,602.607,4412.508,602.607Z" transform="translate(-4390.527 -594.157)" fill="#fff"/>
        <path id="Path_2134" data-name="Path 2134" d="M4412.508,681.738c-.281,0-.563.008-.844,0a.843.843,0,0,1-.836-.845.834.834,0,0,1,.815-.837q.87-.024,1.742,0a.841.841,0,0,1-.005,1.683C4413.089,681.747,4412.8,681.738,4412.508,681.738Z" transform="translate(-4390.527 -669.905)" fill="#fff"/>
        <path id="Path_2135" data-name="Path 2135" d="M4412.508,760.869c-.281,0-.563.008-.845,0a.843.843,0,0,1-.835-.846.833.833,0,0,1,.816-.837q.87-.024,1.742,0a.841.841,0,0,1-.007,1.683C4413.089,760.877,4412.8,760.869,4412.508,760.869Z" transform="translate(-4390.527 -745.653)" fill="#fff"/>
        <path id="Path_2136" data-name="Path 2136" d="M4412.521,840.018c-.282,0-.563.007-.845,0a.843.843,0,1,1,0-1.686c.563-.01,1.127-.012,1.689,0a.842.842,0,0,1,0,1.685C4413.085,840.025,4412.8,840.017,4412.521,840.018Z" transform="translate(-4390.525 -821.418)" fill="#fff"/>
      </g>
    </g>
  </g>
</svg>
