<svg xmlns="http://www.w3.org/2000/svg" width="27" height="36" viewBox="0 0 27 36">
  <g id="Component_76_14" data-name="Component 76 – 14" transform="translate(1 1)">
    <g id="Phone">
      <g id="BG" fill="none" stroke="#242424" stroke-linejoin="round" stroke-width="1" opacity="0.51">
        <rect width="25" height="34" rx="3" stroke="none"/>
        <rect x="-0.5" y="-0.5" width="26" height="35" rx="3.5" fill="none"/>
      </g>
    </g>
    <g id="Group_2196" data-name="Group 2196" transform="translate(22.545 13.091) rotate(90)">
      <path id="Path_2199" data-name="Path 2199" d="M0,15.364a2.314,2.314,0,0,0,.4.9,1.562,1.562,0,0,0,2.242.224c.368-.329.7-.7,1.04-1.06Q6.39,12.576,9.094,9.721a1.777,1.777,0,0,0,.311-2.162,1.929,1.929,0,0,0-.3-.4Q5.978,3.856,2.847.562A1.562,1.562,0,0,0,.8.251,1.671,1.671,0,0,0,.035,1.385c-.009.042-.023.084-.035.125v.414A2.457,2.457,0,0,0,.775,3.26Q3.18,5.775,5.568,8.306c.038.04.072.082.115.131l-.159.171Q3.154,11.1.782,13.6A2.553,2.553,0,0,0,0,14.912Z" transform="translate(0 1.614)" fill="#dcb5b9"/>
    </g>
  </g>
</svg>
