<svg xmlns="http://www.w3.org/2000/svg" xmlns:xlink="http://www.w3.org/1999/xlink" width="43" height="52" viewBox="0 0 43 52">
  <defs>
    <filter id="BG" x="0" y="0" width="43" height="52" filterUnits="userSpaceOnUse">
      <feOffset dy="3" input="SourceAlpha"/>
      <feGaussianBlur stdDeviation="3" result="blur"/>
      <feFlood flood-opacity="0.161"/>
      <feComposite operator="in" in2="blur"/>
      <feComposite in="SourceGraphic"/>
    </filter>
  </defs>
  <g id="Component_76_15" data-name="Component 76 – 15" transform="translate(9 6)">
    <g id="Phone">
      <g transform="matrix(1, 0, 0, 1, -9, -6)" filter="url(#BG)">
        <rect id="BG-2" data-name="BG" width="25" height="34" rx="3" transform="translate(9 6)" fill="#e45d6f"/>
      </g>
    </g>
    <g id="Group_2196" data-name="Group 2196" transform="translate(4.069 22.731) rotate(-90)">
      <path id="Path_2199" data-name="Path 2199" d="M0,15.363a2.314,2.314,0,0,0,.4.9,1.562,1.562,0,0,0,2.242.224c.368-.329.7-.7,1.04-1.06Q6.39,12.575,9.094,9.721a1.777,1.777,0,0,0,.311-2.162,1.929,1.929,0,0,0-.3-.4Q5.978,3.856,2.847.562A1.562,1.562,0,0,0,.8.251,1.67,1.67,0,0,0,.035,1.385C.026,1.427.012,1.469,0,1.51v.414A2.457,2.457,0,0,0,.775,3.26Q3.18,5.775,5.568,8.306c.038.04.072.082.115.131l-.159.171Q3.154,11.1.782,13.6A2.553,2.553,0,0,0,0,14.912Z" fill="#fff3f5"/>
    </g>
  </g>
</svg>
