<svg xmlns="http://www.w3.org/2000/svg" width="38" height="37" viewBox="0 0 38 37">
  <g id="Group_2485" data-name="Group 2485" transform="translate(0 37) rotate(-90)">
    <ellipse id="Ellipse_15" data-name="Ellipse 15" cx="18.5" cy="19" rx="18.5" ry="19" fill="#e1e1e1"/>
    <g id="Group_173" data-name="Group 173" transform="translate(13.463 10.298)">
      <path id="Path_1365" data-name="Path 1365" d="M7.518,8.145,5.269,10.077Q2.9,12.111.532,14.143a1.168,1.168,0,0,0-.469,1.064,1.1,1.1,0,0,0,.711.943,1.094,1.094,0,0,0,1.186-.2c.586-.493,1.163-1,1.745-1.495q3.108-2.667,6.217-5.331A1.141,1.141,0,0,0,10.405,7.9a1.458,1.458,0,0,0-.413-.671Q5.965,3.746,1.913.291A1.138,1.138,0,0,0,.273.416,1.151,1.151,0,0,0,.457,2.074q3.424,2.941,6.85,5.88C7.374,8.012,7.438,8.073,7.518,8.145Z" fill="#23314b"/>
    </g>
  </g>
</svg>
