<svg xmlns="http://www.w3.org/2000/svg" width="38" height="37" viewBox="0 0 38 37">
  <g id="Group_2486" data-name="Group 2486" transform="translate(38) rotate(90)">
    <ellipse id="Ellipse_15" data-name="Ellipse 15" cx="18.5" cy="19" rx="18.5" ry="19" fill="#e1e1e1"/>
    <g id="Group_173" data-name="Group 173" transform="translate(13.463 11.458)">
      <path id="Path_1365" data-name="Path 1365" d="M7.518,8.1,5.269,6.168Q2.9,4.134.532,2.1A1.168,1.168,0,0,1,.063,1.037,1.1,1.1,0,0,1,.774.094,1.094,1.094,0,0,1,1.96.29c.586.493,1.163,1,1.745,1.495Q6.812,4.451,9.922,7.116a1.141,1.141,0,0,1,.484,1.228,1.458,1.458,0,0,1-.413.671Q5.965,12.5,1.913,15.953a1.138,1.138,0,0,1-1.641-.125A1.151,1.151,0,0,1,.457,14.17q3.424-2.941,6.85-5.88C7.374,8.233,7.438,8.172,7.518,8.1Z" fill="#23314b"/>
    </g>
  </g>
</svg>
