<svg xmlns="http://www.w3.org/2000/svg" viewBox="0 0 60 61"><defs><style>.cls-1{fill:#d5123a;}.cls-2{fill:#fff;}</style></defs><g id="Layer_2" data-name="Layer 2"><g id="Layer_1-2" data-name="Layer 1"><g id="Group_129-7" data-name="Group 129-7"><rect id="Rectangle_3-11" data-name="Rectangle 3-11" class="cls-1" width="60" height="61" rx="19"/><g id="Group_137" data-name="Group 137"><path id="Path_1341" data-name="Path 1341" class="cls-2" d="M14.13,48.72a1.83,1.83,0,0,1-1.31-1.37,2.07,2.07,0,0,1,0-.5V40.29a1.73,1.73,0,0,1,1.57-1.87h3.3a1.75,1.75,0,0,1,1.73,1.07c.2.4.33,1,.66,1.15s.88.06,1.33.06h1.14a1.7,1.7,0,0,1,1.69,1.68c0,1.55,0,3.09,0,4.64a1.66,1.66,0,0,1-1.1,1.57l-.25.11Zm4.32-1.15h3.89c.52,0,.72-.2.72-.71V42.58c0-.53-.2-.72-.74-.72H19.75a.67.67,0,0,1-.68-.42c-.23-.47-.48-.93-.7-1.4a.73.73,0,0,0-.75-.48c-1,0-2,0-3,0-.51,0-.7.2-.7.72v6.53c0,.56.18.74.75.75Z"/><path id="Path_1342" data-name="Path 1342" class="cls-2" d="M26.7,48.72a1.83,1.83,0,0,1-1.31-1.37,2.07,2.07,0,0,1,0-.5V40.29a1.73,1.73,0,0,1,1.57-1.87h3.33a1.72,1.72,0,0,1,1.68,1,.43.43,0,0,1,0,.07c.2.38.32.91.64,1.12s.83.05,1.25.05h1.22a1.7,1.7,0,0,1,1.69,1.68c0,1.55,0,3.09,0,4.64a1.65,1.65,0,0,1-1.1,1.57l-.25.11ZM31,47.57h3.89c.52,0,.72-.2.72-.71V42.58c0-.53-.2-.72-.74-.72H32.36a.71.71,0,0,1-.74-.44c-.21-.47-.46-.91-.68-1.38a.72.72,0,0,0-.75-.47h-3c-.56,0-.74.19-.74.76v6.5c0,.55.19.74.75.74Z"/><path id="Path_1343" data-name="Path 1343" class="cls-2" d="M39.27,48.72A1.84,1.84,0,0,1,38,47.36a2.45,2.45,0,0,1,0-.46V40.26a1.71,1.71,0,0,1,1.59-1.83h3.3a1.74,1.74,0,0,1,1.69,1c.17.34.32.69.52,1a.54.54,0,0,0,.36.23c.61,0,1.22,0,1.82,0a1.9,1.9,0,0,1,2.14,1.36v5.29A2,2,0,0,1,48,48.72Zm4.35-1.15h3.86c.52,0,.72-.2.72-.7V42.55c0-.49-.21-.69-.7-.69H45a.75.75,0,0,1-.79-.47c-.21-.47-.46-.91-.68-1.38a.71.71,0,0,0-.73-.44h-3c-.56,0-.75.19-.75.75v6.5c0,.56.19.75.75.75Z"/><path id="Path_1344" data-name="Path 1344" class="cls-2" d="M24.77,17.26v-4c0-1.05.06-1.11,1.11-1.11h7.21a1.1,1.1,0,0,1,.85.35q1.53,1.56,3.08,3.08a1.05,1.05,0,0,1,.33.79c0,1.25,0,2.5,0,3.7a7.92,7.92,0,0,1,1.1.38,2.16,2.16,0,0,1,1.19,2c0,1.91,0,3.81,0,5.72a2.27,2.27,0,0,1-2.24,2.3H24.77a2.27,2.27,0,0,1-2.28-2.26V28.1q0-4.16,0-8.32a2.32,2.32,0,0,1,2.14-2.51Zm6.28,12h6.14a1.17,1.17,0,0,0,1.3-1,1.4,1.4,0,0,0,0-.29V22.6a1.18,1.18,0,0,0-1-1.32,1.08,1.08,0,0,0-.31,0H31.78a.72.72,0,0,1-.7-.39c-.36-.61-.73-1.2-1.09-1.8a1.27,1.27,0,0,0-1.2-.68H24.94a1.16,1.16,0,0,0-1.3,1,1.4,1.4,0,0,0,0,.29V28a1.16,1.16,0,0,0,1,1.31,1.09,1.09,0,0,0,.31,0Zm5.13-9.15V16.71H33.53c-.57,0-.76-.19-.76-.77V13.31H25.94v4h3a2.28,2.28,0,0,1,2,1.14,7,7,0,0,1,.56.95,1.19,1.19,0,0,0,1.37.79c1.1-.07,2.21,0,3.33,0Zm-.92-4.58-1.32-1.35v1.35Z"/><path id="Path_1345" data-name="Path 1345" class="cls-2" d="M31.63,35v1.4c0,.57-.19.85-.58.84s-.56-.27-.56-.82V35H19.87c-.64,0-.8.17-.8.8,0,.3,0,.6,0,.89a.59.59,0,0,1-.56.59h0a.57.57,0,0,1-.55-.58h0c0-.41,0-.83,0-1.25a1.72,1.72,0,0,1,1.78-1.59H30.5c0-.58,0-1.13,0-1.69a.56.56,0,0,1,.53-.59h0a.57.57,0,0,1,.59.55c0,.11,0,.23,0,.35v1.38H42.3a1.73,1.73,0,0,1,1.9,1.54,1.09,1.09,0,0,1,0,.36c0,.31,0,.62,0,.93a.56.56,0,0,1-.54.6h0a.57.57,0,0,1-.57-.57v0c0-.35,0-.71,0-1.07a.57.57,0,0,0-.51-.6H31.74Z"/></g></g></g></g></svg>