<svg xmlns="http://www.w3.org/2000/svg" viewBox="0 0 60 61"><defs><style>.cls-1{fill:#ffe2e2;}.cls-2{fill:#b75065;}</style></defs><g id="Layer_2" data-name="Layer 2"><g id="Layer_1-2" data-name="Layer 1"><g id="Group_129-11" data-name="Group 129-11"><rect id="Rectangle_3-15" data-name="Rectangle 3-15" class="cls-1" width="60" height="61" rx="19"/><g id="Group_137-2" data-name="Group 137-2"><path id="Path_1341-2" data-name="Path 1341-2" class="cls-2" d="M14.52,48.72a1.84,1.84,0,0,1-1.31-1.37,2.07,2.07,0,0,1,0-.5V40.29a1.73,1.73,0,0,1,1.57-1.87H18a1.77,1.77,0,0,1,1.74,1.07c.2.4.32,1,.65,1.15s.88.06,1.33.06H22.9a1.7,1.7,0,0,1,1.69,1.68c0,1.55,0,3.09,0,4.64a1.65,1.65,0,0,1-1.1,1.57l-.25.11Zm4.32-1.15h3.89c.52,0,.72-.2.72-.71V42.58c0-.53-.2-.72-.74-.72H20.14a.67.67,0,0,1-.68-.42c-.23-.47-.48-.93-.69-1.4a.75.75,0,0,0-.76-.48c-1,0-2,0-3,0-.5,0-.7.2-.7.72v6.53c0,.56.19.74.75.75Z"/><path id="Path_1342-2" data-name="Path 1342-2" class="cls-2" d="M27.09,48.72a1.84,1.84,0,0,1-1.31-1.37,2.07,2.07,0,0,1,0-.5V40.29a1.73,1.73,0,0,1,1.57-1.87h3.33a1.74,1.74,0,0,1,1.69,1l0,.07c.2.38.32.91.64,1.12s.83.05,1.26.05h1.21a1.7,1.7,0,0,1,1.69,1.68c0,1.55,0,3.09,0,4.64a1.65,1.65,0,0,1-1.1,1.57l-.25.11Zm4.32-1.15H35.3c.52,0,.72-.2.72-.71V42.58c0-.53-.2-.72-.74-.72H32.75a.71.71,0,0,1-.74-.44c-.21-.47-.46-.91-.68-1.38a.72.72,0,0,0-.75-.47h-3c-.55,0-.74.19-.74.76v6.5c0,.55.19.74.75.74Z"/><path id="Path_1343-2" data-name="Path 1343-2" class="cls-2" d="M39.66,48.72a1.84,1.84,0,0,1-1.31-1.36,2.45,2.45,0,0,1,0-.46V40.26a1.71,1.71,0,0,1,1.59-1.83h3.3a1.73,1.73,0,0,1,1.69,1c.17.34.32.69.52,1a.54.54,0,0,0,.37.23c.6,0,1.21,0,1.81,0a1.91,1.91,0,0,1,2.15,1.36v5.29a2.06,2.06,0,0,1-1.36,1.36ZM44,47.57h3.85c.52,0,.72-.2.72-.7V42.55c0-.49-.21-.69-.7-.69H45.36a.75.75,0,0,1-.79-.47c-.21-.47-.46-.91-.68-1.38a.69.69,0,0,0-.73-.44h-3c-.56,0-.75.19-.75.75v6.5c0,.56.19.75.75.75Z"/><path id="Path_1344-2" data-name="Path 1344-2" class="cls-2" d="M25.16,17.26v-4c0-1.05.06-1.11,1.11-1.11h7.21a1.1,1.1,0,0,1,.85.35q1.53,1.56,3.08,3.08a1.05,1.05,0,0,1,.33.79c0,1.25,0,2.5,0,3.7a8.94,8.94,0,0,1,1.1.38,2.17,2.17,0,0,1,1.18,2c0,1.91,0,3.81,0,5.72a2.27,2.27,0,0,1-2.23,2.3H25.17a2.28,2.28,0,0,1-2.29-2.26V28.1q0-4.16,0-8.32A2.33,2.33,0,0,1,25,17.27Zm6.28,12h6.14a1.17,1.17,0,0,0,1.3-1,1.4,1.4,0,0,0,0-.29V22.6a1.18,1.18,0,0,0-1-1.32,1.08,1.08,0,0,0-.31,0H32.17a.72.72,0,0,1-.7-.39c-.36-.61-.73-1.2-1.08-1.8a1.29,1.29,0,0,0-1.2-.68H25.33a1.16,1.16,0,0,0-1.3,1,1.4,1.4,0,0,0,0,.29V28a1.17,1.17,0,0,0,1,1.31,1,1,0,0,0,.3,0Zm5.13-9.15V16.71H33.92c-.57,0-.76-.19-.76-.77V13.31H26.33v4h3a2.28,2.28,0,0,1,2,1.14,7,7,0,0,1,.56.95,1.19,1.19,0,0,0,1.37.79c1.1-.07,2.21,0,3.33,0Zm-.92-4.58-1.32-1.35v1.35Z"/><path id="Path_1345-2" data-name="Path 1345-2" class="cls-2" d="M32,35v1.4c0,.57-.19.85-.58.84s-.56-.27-.56-.82V35H20.26c-.64,0-.8.17-.8.8,0,.3,0,.6,0,.89a.59.59,0,0,1-.56.59h0a.57.57,0,0,1-.55-.58h0c0-.41,0-.83,0-1.25a1.72,1.72,0,0,1,1.78-1.59H30.89c0-.58,0-1.13,0-1.69a.56.56,0,0,1,.53-.59h0a.57.57,0,0,1,.59.55c0,.11,0,.23,0,.35v1.38H42.69a1.73,1.73,0,0,1,1.9,1.54,1.09,1.09,0,0,1,0,.36c0,.31,0,.62,0,.93a.56.56,0,0,1-.54.6h0a.56.56,0,0,1-.56-.57v0c0-.35,0-.71,0-1.07a.57.57,0,0,0-.51-.6H32.13Z"/></g></g></g></g></svg>