<svg xmlns="http://www.w3.org/2000/svg" width="37" height="38" viewBox="0 0 37 38">
  <g id="Group_2111" data-name="Group 2111" transform="translate(0.06 0.138)">
    <ellipse id="Ellipse_15" data-name="Ellipse 15" cx="18.5" cy="19" rx="18.5" ry="19" transform="translate(-0.06 -0.138)" fill="#71c9a3"/>
    <g id="Group_2048" data-name="Group 2048" transform="translate(10.658 10.719)">
      <path id="Path_2173" data-name="Path 2173" d="M2530.736,1831.011h-6.317a1.621,1.621,0,0,1-1.73-1.736q0-6.345,0-12.689a1.62,1.62,0,0,1,1.732-1.734q5.258,0,10.517,0a.76.76,0,0,1,.582.239q1.526,1.541,3.065,3.07a.747.747,0,0,1,.237.567q-.006,5.285,0,10.569a1.617,1.617,0,0,1-1.716,1.717Zm-5.359-1.078v-.2q0-1.733,0-3.467a1.618,1.618,0,0,1,1.713-1.719h7.325a1.617,1.617,0,0,1,1.716,1.716q0,1.742,0,3.484v.186c.364,0,.705,0,1.046,0a.536.536,0,0,0,.566-.573q0-5.2,0-10.4a.3.3,0,0,0-.073-.189q-1.373-1.385-2.755-2.762a.218.218,0,0,0-.122-.075c-.267-.007-.533,0-.811,0v.2q0,1.472,0,2.945a1.079,1.079,0,0,1-1.151,1.16h-4.15a1.079,1.079,0,0,1-1.151-1.159q0-1.481,0-2.962v-.187h-3.095c-.482,0-.669.188-.669.672q0,6.328,0,12.655c0,.05,0,.1,0,.152a.532.532,0,0,0,.512.523C2524.635,1829.939,2524.994,1829.932,2525.377,1829.932Zm1.075-.011h8.6v-.144q0-1.776,0-3.551a.547.547,0,0,0-.605-.6h-7.392a.543.543,0,0,0-.605.6q0,1.026,0,2.053Zm6.445-13.98h-4.281v3.211h4.281Z" transform="translate(-2522.689 -1814.849)" fill="#fff"/>
    </g>
  </g>
</svg>
