<svg xmlns="http://www.w3.org/2000/svg" width="37" height="38" viewBox="0 0 37 38">
  <g id="Group_2484" data-name="Group 2484" transform="translate(0.064 0.434)">
    <ellipse id="Ellipse_15" data-name="Ellipse 15" cx="18.5" cy="19" rx="18.5" ry="19" transform="translate(-0.064 -0.433)" fill="#ffe2e2"/>
    <g id="Group_2455" data-name="Group 2455" transform="translate(1900.838 -4490.305)">
      <path id="Path_2210" data-name="Path 2210" d="M-1888.318,4518.705a1.805,1.805,0,0,1-1.043-.556,1.743,1.743,0,0,1-.417-1.2q0-6.327,0-12.652c0-1.178,0-2.355,0-3.533a1.586,1.586,0,0,1,.936-1.546,1.892,1.892,0,0,1,.777-.167c2.809-.012,5.619-.006,8.428-.009a.615.615,0,0,1,.462.191q1.973,1.977,3.951,3.95a.638.638,0,0,1,.2.48q0,6.662,0,13.324a1.654,1.654,0,0,1-1.41,1.7.254.254,0,0,0-.052.023Zm8.373-18.847h-8.031a.859.859,0,0,0-.984.989q0,8.026,0,16.051c0,.677.311.991.983.991h11.155a.855.855,0,0,0,.977-.977q0-6.365,0-12.729v-.225h-.228c-.723,0-1.446,0-2.169,0a1.578,1.578,0,0,1-1.527-.936,2.053,2.053,0,0,1-.167-.8C-1879.959,4501.445-1879.945,4500.665-1879.945,4499.858Zm3.421,3.273-2.593-2.593c0,.592-.021,1.224.007,1.854a.736.736,0,0,0,.747.733C-1877.739,4503.151-1877.113,4503.132-1876.524,4503.132Z" transform="translate(0)" fill="#9e192d"/>
      <path id="Path_2211" data-name="Path 2211" d="M-1832.973,4636.741a5.5,5.5,0,0,1-.316,1.46c-.057.2-.119.4-.191.6a.239.239,0,0,0,.054.273,10.975,10.975,0,0,0,1.6,1.538.412.412,0,0,0,.258.067c.49-.027.979-.078,1.469-.1a1.769,1.769,0,0,1,.527.085.838.838,0,0,1,.679.859.972.972,0,0,1-.675,1,1.515,1.515,0,0,1-1.39-.274c-.293-.193-.577-.4-.87-.6a.32.32,0,0,0-.224-.053c-.834.215-1.665.442-2.5.661a.433.433,0,0,0-.292.246,6.264,6.264,0,0,1-1.618,2.094,1.51,1.51,0,0,1-1.56.363.927.927,0,0,1-.31-1.663,5.34,5.34,0,0,1,.977-.633c.611-.32,1.241-.6,1.86-.909a.4.4,0,0,0,.189-.192q.421-1.172.819-2.351a.33.33,0,0,0-.057-.222c-.244-.432-.525-.847-.735-1.295a2.246,2.246,0,0,1-.047-1.651,1.152,1.152,0,0,1,1.423-.8.965.965,0,0,1,.823.821C-1833.024,4636.3-1833.005,4636.521-1832.973,4636.741Zm-1.152,1.4a7.337,7.337,0,0,0,.239-.849,4.764,4.764,0,0,0,.047-.911c-.009-.26-.115-.331-.374-.323-.2.005-.3.1-.355.333A2.1,2.1,0,0,0-1834.126,4638.139Zm.3,1.746-.47,1.42,1.438-.378Zm-2.249,3.118-.037-.059q-.795.45-1.589.9a.376.376,0,0,0-.084.078c-.145.159-.127.22.081.29a.563.563,0,0,0,.495-.064A4.1,4.1,0,0,0-1836.079,4643Zm5.378-1.63-.016.063a2.748,2.748,0,0,0,.371.228,1.539,1.539,0,0,0,.433.11c.112.015.215-.055.195-.177a.25.25,0,0,0-.17-.16C-1830.157,4641.4-1830.43,4641.392-1830.7,4641.373Z" transform="translate(-48.6 -129.64)" fill="#9e192d"/>
    </g>
  </g>
</svg>
