<svg xmlns="http://www.w3.org/2000/svg" width="39.927" height="39.927" viewBox="0 0 39.927 39.927">
  <g id="Group_2483" data-name="Group 2483" transform="translate(-698.238 -1465.125) rotate(45)">
    <g id="Group_174" data-name="Group 174" transform="translate(1544 528)">
      <ellipse id="Ellipse_15" data-name="Ellipse 15" cx="13.961" cy="14.271" rx="13.961" ry="14.271" transform="translate(0 0)" fill="#ffe9e9"/>
    </g>
    <g id="Group_2086" data-name="Group 2086" transform="translate(1557.961 530.348) rotate(45)">
      <g id="Group_167" data-name="Group 167" transform="translate(0 8.431) rotate(-45)">
        <g id="Group_127" data-name="Group 127" transform="translate(0 0)">
          <path id="Path_1331" data-name="Path 1331" d="M10.929,4.968H6.955V.994a.994.994,0,1,0-1.987,0V4.968H.994a.994.994,0,1,0,0,1.987H4.968v3.974a.994.994,0,1,0,1.987,0V6.955h3.974a.994.994,0,1,0,0-1.987Z" transform="translate(0 0)" fill="#e10606"/>
        </g>
      </g>
    </g>
  </g>
</svg>
