<svg xmlns="http://www.w3.org/2000/svg" width="37" height="38" viewBox="0 0 37 38">
  <g id="Group_174" data-name="Group 174" transform="translate(-0.198 0.433)">
    <ellipse id="Ellipse_15" data-name="Ellipse 15" cx="18.5" cy="19" rx="18.5" ry="19" transform="translate(0.198 -0.433)" fill="#e1e1e1"/>
    <g id="Group_173" data-name="Group 173" transform="translate(13.661 11.024)">
      <path id="Path_1365" data-name="Path 1365" d="M-1399.281,1050.488l-2.249-1.932q-2.368-2.034-4.738-4.066a1.168,1.168,0,0,1-.469-1.064,1.1,1.1,0,0,1,.711-.943,1.094,1.094,0,0,1,1.186.2c.586.493,1.163,1,1.745,1.495q3.108,2.667,6.217,5.331a1.141,1.141,0,0,1,.484,1.228,1.458,1.458,0,0,1-.413.671q-4.027,3.483-8.079,6.939a1.138,1.138,0,0,1-1.641-.125,1.151,1.151,0,0,1,.184-1.659q3.424-2.941,6.85-5.88C-1399.425,1050.622-1399.361,1050.561-1399.281,1050.488Z" transform="translate(1406.799 -1042.389)" fill="#23314b"/>
    </g>
  </g>
</svg>
