<svg xmlns="http://www.w3.org/2000/svg" viewBox="0 0 60 61"><defs><style>.cls-1{fill:#d5123a;}.cls-2{fill:#fff;}</style></defs><g id="Layer_2" data-name="Layer 2"><g id="Layer_1-2" data-name="Layer 1"><g id="Group_129-8" data-name="Group 129-8"><rect id="Rectangle_3-12" data-name="Rectangle 3-12" class="cls-1" width="60" height="61" rx="19"/></g><g id="Group_1870-2" data-name="Group 1870-2"><path id="Path_1362-2" data-name="Path 1362-2" class="cls-2" d="M15.23,27.93c.32-.61.76-.85,1.26-.62a2.13,2.13,0,0,1,.52.47,2.8,2.8,0,0,1,.25.35c0-.14.06-.23.08-.33a13.58,13.58,0,0,1,9.9-10.66,13.73,13.73,0,0,1,14.5,4.7,13.32,13.32,0,0,1,3,9.28A13.3,13.3,0,0,1,38.1,42.28,13.39,13.39,0,0,1,24.92,43a12.48,12.48,0,0,1-4.84-4,.93.93,0,0,1,.08-1.31l.07,0a.94.94,0,0,1,1.3.2l0,.06A11.1,11.1,0,0,0,29,42.32,12,12,0,1,0,19.11,28.4v.05l.08.08c.14-.17.27-.36.43-.52a.91.91,0,0,1,1.29-.08s0,0,0,0a.91.91,0,0,1,0,1.29s0,0,0,0c-.75.76-1.51,1.52-2.27,2.27a.89.89,0,0,1-1.25.07.82.82,0,0,1-.17-.2c-.63-.92-1.24-1.85-1.85-2.78-.06-.08-.1-.18-.16-.27Z"/><path id="Path_1363-2" data-name="Path 1363-2" class="cls-2" d="M31.38,26.46v3.75a.45.45,0,0,0,.22.42q2.4,1.8,4.78,3.62a1,1,0,0,1,.48.68.92.92,0,0,1-1.47.88l-2.24-1.67c-1-.79-2.09-1.58-3.14-2.35a1.06,1.06,0,0,1-.47-.93V22.7a.93.93,0,0,1,.85-1h.08a.94.94,0,0,1,.92.94s0,.05,0,.07Q31.4,24.59,31.38,26.46Z"/></g></g></g></svg>