<svg id="Group_2662" data-name="Group 2662" xmlns="http://www.w3.org/2000/svg" width="23.898" height="22.472" viewBox="0 0 23.898 22.472">
  <path id="Path_1362" data-name="Path 1362" d="M-1337,1745.605c.26-.5.613-.688,1.017-.5a1.643,1.643,0,0,1,.423.38,2.329,2.329,0,0,1,.2.283c.029-.113.051-.189.068-.265a10.983,10.983,0,0,1,8.006-8.629,11.114,11.114,0,0,1,11.742,3.8,10.831,10.831,0,0,1,2.424,7.507,10.756,10.756,0,0,1-5.379,9.033,10.839,10.839,0,0,1-10.661.555,10.061,10.061,0,0,1-3.918-3.269.747.747,0,0,1,.117-1.094.752.752,0,0,1,1.083.207,8.985,8.985,0,0,0,5.979,3.637,9.7,9.7,0,0,0,10.64-6.064,9.686,9.686,0,0,0-4.224-11.963,9.734,9.734,0,0,0-11.985,1.885,9.72,9.72,0,0,0-2.393,4.871.162.162,0,0,0,0,.046l.062.063c.114-.14.219-.291.345-.419a.742.742,0,0,1,1.082-.04.742.742,0,0,1-.02,1.083q-.91.921-1.833,1.831a.72.72,0,0,1-1.149-.1c-.509-.744-1-1.5-1.5-2.25-.047-.07-.083-.146-.124-.22Z" transform="translate(1337 -1736.438)" fill="#fff"/>
  <path id="Path_1363" data-name="Path 1363" d="M-1149.891,1806.456c0,1.011,0,2.022,0,3.033a.384.384,0,0,0,.175.346q1.938,1.458,3.871,2.923a.846.846,0,0,1,.391.555.711.711,0,0,1-.343.759.715.715,0,0,1-.851-.047c-.605-.45-1.207-.9-1.81-1.357-.846-.635-1.689-1.273-2.54-1.9a.87.87,0,0,1-.384-.752q0-3.3,0-6.6a.749.749,0,0,1,.751-.805.754.754,0,0,1,.742.815Q-1149.889,1804.939-1149.891,1806.456Z" transform="translate(1162.961 -1798.481)" fill="#fff"/>
</svg>
