<svg xmlns="http://www.w3.org/2000/svg" viewBox="0 0 60 61"><defs><style>.cls-1{fill:#d5123a;}.cls-2{fill:#fff;}</style></defs><g id="Layer_2" data-name="Layer 2"><g id="Layer_1-2" data-name="Layer 1"><g id="Group_129-5" data-name="Group 129-5"><rect id="Rectangle_3-9" data-name="Rectangle 3-9" class="cls-1" width="60" height="61" rx="19"/></g><g id="list-2"><path id="Path_1332-2" data-name="Path 1332-2" class="cls-2" d="M42.49,41h-18a1.35,1.35,0,0,1-.07-2.7H42.49a1.35,1.35,0,0,1,0,2.7Z"/><path id="Path_1333-2" data-name="Path 1333-2" class="cls-2" d="M42.49,32.54h-18a1.35,1.35,0,1,1-.07-2.69H42.49a1.35,1.35,0,0,1,0,2.69Z"/><path id="Path_1334-2" data-name="Path 1334-2" class="cls-2" d="M42.49,24.09h-18a1.35,1.35,0,0,1-.07-2.69H42.49a1.35,1.35,0,0,1,0,2.69Z"/><circle id="Ellipse_12-2" data-name="Ellipse 12-2" class="cls-2" cx="18.65" cy="22.85" r="1.81"/><circle id="Ellipse_13-2" data-name="Ellipse 13-2" class="cls-2" cx="18.65" cy="31.2" r="1.81"/><circle id="Ellipse_14-2" data-name="Ellipse 14-2" class="cls-2" cx="18.65" cy="39.55" r="1.81"/></g></g></g></svg>