<svg id="Group_2502" data-name="Group 2502" xmlns="http://www.w3.org/2000/svg" width="29.452" height="29.453" viewBox="0 0 29.452 29.453">
  <path id="Path_2163" data-name="Path 2163" d="M6124-1560.539c.05-.183.093-.368.149-.548a3.165,3.165,0,0,1,3.094-2.212q5.854-.005,11.7,0c1.39,0,1.1-.134,2.1.864,1.656,1.652,3.3,3.311,4.965,4.957a1.358,1.358,0,0,1,.433,1.045c-.014,2.588-.008,5.176-.008,7.763v.382h.319c1.926,0,3.853,0,5.779,0a.859.859,0,0,1,.795,1.3.883.883,0,0,1-.824.428q-2.861,0-5.723,0h-.347v.354c0,3.01-.02,6.019.008,9.028a3.2,3.2,0,0,1-2.7,3.289.229.229,0,0,0-.072.041H6126.76a.767.767,0,0,0-.128-.05,3.123,3.123,0,0,1-2.483-2.164c-.062-.178-.1-.364-.149-.546Zm16.745,13.989c.7.69,1.344,1.318,1.975,1.961a.851.851,0,0,1,.016,1.216.852.852,0,0,1-1.237,0q-1.727-1.709-3.436-3.437a.829.829,0,0,1-.006-1.214q1.717-1.739,3.455-3.458a.808.808,0,0,1,.819-.221.854.854,0,0,1,.375,1.46c-.565.587-1.15,1.155-1.726,1.732-.061.061-.116.125-.2.211h3.9v-7.518h-4.675c-.747,0-1.057-.314-1.057-1.07v-4.681h-11.663a1.447,1.447,0,0,0-1.565,1.58v22.832a1.451,1.451,0,0,0,1.591,1.585H6143.1a1.455,1.455,0,0,0,1.6-1.6v-9.37Zm2.567-11.013c-.861-.86-1.763-1.761-2.608-2.608v2.608Z" transform="translate(-6123.999 1563.304)" fill="#fff"/>
  <path id="Path_2164" data-name="Path 2164" d="M6174.613-1433.542c-1.6,0-3.2,0-4.8,0a.859.859,0,0,1-.831-1.24.868.868,0,0,1,.846-.485q2.846,0,5.688,0c1.321,0,2.644,0,3.965,0a.856.856,0,0,1,.821,1.227.873.873,0,0,1-.866.5Q6177.027-1433.545,6174.613-1433.542Z" transform="translate(-6165.439 1445.107)" fill="#fff"/>
  <path id="Path_2165" data-name="Path 2165" d="M6174.641-1298.806c-1.607,0-3.217,0-4.825,0a.858.858,0,0,1-.829-1.242.867.867,0,0,1,.845-.484q2.962,0,5.92,0c1.244,0,2.488,0,3.733,0a.856.856,0,0,1,.821,1.228.875.875,0,0,1-.867.5Q6177.041-1298.81,6174.641-1298.806Z" transform="translate(-6165.44 1320.724)" fill="#fff"/>
  <path id="Path_2166" data-name="Path 2166" d="M6173.459-1390.345q1.811,0,3.62,0a.878.878,0,0,1,.982.853.875.875,0,0,1-.965.871q-3.647,0-7.3,0a.862.862,0,0,1-.867-1.2.859.859,0,0,1,.85-.524Q6171.62-1390.343,6173.459-1390.345Z" transform="translate(-6165.409 1403.636)" fill="#fff"/>
  <path id="Path_2167" data-name="Path 2167" d="M6173.556-1345.432h3.589a.877.877,0,0,1,.979.858.875.875,0,0,1-.97.866q-3.634,0-7.268,0a.873.873,0,0,1-.962-.873.873.873,0,0,1,.956-.851Q6171.717-1345.434,6173.556-1345.432Z" transform="translate(-6165.473 1362.173)" fill="#fff"/>
</svg>
