<svg xmlns="http://www.w3.org/2000/svg" viewBox="0 0 61 61"><defs><style>.cls-1{fill:#ffe2e2;}.cls-2{fill:#b75065;}</style></defs><g id="Layer_2" data-name="Layer 2"><g id="Layer_1-2" data-name="Layer 1"><g id="Group_129" data-name="Group 129"><rect id="Rectangle_3-5" data-name="Rectangle 3-5" class="cls-1" width="61" height="61" rx="19"/></g><g id="list"><path id="Path_1332" data-name="Path 1332" class="cls-2" d="M42.88,41H24.83a1.35,1.35,0,0,1-.07-2.7H42.88a1.35,1.35,0,0,1,0,2.7Z"/><path id="Path_1333" data-name="Path 1333" class="cls-2" d="M42.88,32.54H24.83a1.35,1.35,0,1,1-.07-2.69H42.88a1.35,1.35,0,0,1,0,2.69Z"/><path id="Path_1334" data-name="Path 1334" class="cls-2" d="M42.88,24.09H24.83a1.35,1.35,0,1,1-.07-2.69H42.88a1.35,1.35,0,0,1,0,2.69Z"/><circle id="Ellipse_12" data-name="Ellipse 12" class="cls-2" cx="19.04" cy="22.85" r="1.81"/><circle id="Ellipse_13" data-name="Ellipse 13" class="cls-2" cx="19.04" cy="31.2" r="1.81"/><circle id="Ellipse_14" data-name="Ellipse 14" class="cls-2" cx="19.04" cy="39.55" r="1.81"/></g></g></g></svg>