<svg xmlns="http://www.w3.org/2000/svg" viewBox="0 0 169 50"><defs><style>.cls-1{fill:#d5123a;}.cls-2,.cls-3{isolation:isolate;}.cls-3{font-size:13px;font-family:Lato-Heavy, Lato;font-weight:800;}.cls-3,.cls-4{fill:#fff;}</style></defs><g id="Layer_2" data-name="Layer 2"><g id="Layer_1-2" data-name="Layer 1"><g id="Group_1756" data-name="Group 1756"><g id="Group_138" data-name="Group 138"><rect id="Rectangle_3" data-name="Rectangle 3" class="cls-1" width="169" height="50" rx="8"/></g><g id="Se_Déconnecter" data-name="Se Déconnecter" class="cls-2"><text class="cls-3" transform="translate(49.8 29)">Se Déconnecter</text></g><g id="Group_185" data-name="Group 185"><path id="Path_1368" data-name="Path 1368" class="cls-4" d="M32.61,17.23V30.77H28.34a.61.61,0,0,0-.64.58.67.67,0,0,0,0,.24.57.57,0,0,0,.56.4c1.47,0,2.95,0,4.42,0a1.21,1.21,0,0,0,1.13-1.23V17.29A1.23,1.23,0,0,0,32.68,16H28.36a.63.63,0,0,0-.66.58.65.65,0,0,0,.05.27.61.61,0,0,0,.62.38Z"/><path id="Path_1369" data-name="Path 1369" class="cls-4" d="M20,24.61H30a1,1,0,0,0,.24,0,.61.61,0,0,0,.5-.71.63.63,0,0,0-.58-.51H20l.16-.17L23,20.36a.71.71,0,0,0,.23-.47.61.61,0,0,0-1-.5l-.15.15-4,4a.63.63,0,0,0-.05.87l.05.05,4.05,4a1,1,0,0,0,.38.23.58.58,0,0,0,.66-.3.62.62,0,0,0-.12-.74L20.13,24.8,20,24.67Z"/></g></g></g></g></svg>