<svg xmlns="http://www.w3.org/2000/svg" width="128.782" height="83.422" viewBox="0 0 128.782 83.422">
  <g id="Group_2643" data-name="Group 2643" transform="translate(14270.104 12871)">
    <path id="Path_2205" data-name="Path 2205" d="M-449.928-6119.687v.01l15.317-11.131-.625-1.928-11.033,8.015,1.86-5.72-1.638-1.189-3.25,10a16.738,16.738,0,0,1-6.025-16.743l-1.69-1.225a18.668,18.668,0,0,0,7.085,19.91m10.17-10.95-11.043-8.015h6.015l.625-1.927h-10.521a16.809,16.809,0,0,1,14.066-10.909l.651-1.979a18.723,18.723,0,0,0-16.753,12.888l15.316,11.13Zm-10.226-24.793h.109c-.072-.842-.367-1.344-.894-1.54a4.261,4.261,0,0,1-2.93-4.046,2.95,2.95,0,0,1,2.889-3.246c2.279,0,3.106,2.662,5.71,2.662.935,0,1.705-.553,1.705-1.023v-.279h-.491c-3.271,0-3.772-3.292-6.924-3.292a4.879,4.879,0,0,0-4.821,5.179,5.525,5.525,0,0,0,5.648,5.58m-30.183,21.471h11.735v-.1a7.762,7.762,0,0,1-3.1-1.829h-8.64c-4.4,0-5.695-.4-7.87-2.76h29.816a19.764,19.764,0,0,1,.486-1.922h-34.5l1.333,1.581c3.5,4.144,4.806,5.028,10.743,5.028m36.085-30.018a2.694,2.694,0,0,0,2.7-2.671c0-1.312-.6-1.84-1.225-1.84a.99.99,0,0,0-.987.982,1,1,0,0,0,.92.976,2.263,2.263,0,0,1-2.258.961.978.978,0,0,0-.238-1.364,1,1,0,0,0-.563-.181,1.047,1.047,0,0,0-.972,1.044,2.357,2.357,0,0,0,2.62,2.093m-9.622,42.156h-14.138c-3.886,0-5.353-.326-7.152-2.036h-2.661c2.853,3.23,4.439,3.964,9.818,3.964h16.086a20.207,20.207,0,0,1-1.953-1.928m-6.506-2.765v-.1a7.717,7.717,0,0,1-3.1-1.829h-8.635c-3.891,0-5.353-.32-7.152-2.025h-2.661c2.852,3.219,4.434,3.953,9.818,3.953Zm-4.108-4.687v-.108a7.825,7.825,0,0,1-3.1-1.814h-8.645c-3.886,0-5.353-.326-7.152-2.036h-2.661c2.852,3.229,4.439,3.958,9.818,3.958Zm29.31-31.93c-.961,0-1.932,1.173-2.289,2.884.589.041,1.183.108,1.762.2.382-1.493,1.049-2.186,1.6-2.278a1.2,1.2,0,0,0-1.075-.8m-3.943,7.71-5.85,18.014,1.638,1.188,4.206-12.965,1.865,5.715h2.026l-3.245-10a16.78,16.78,0,0,1,14.717,10h2.077a18.722,18.722,0,0,0-17.425-11.953m10.433.971v-1.968a21.771,21.771,0,0,0-10.438-2.853,21.811,21.811,0,0,0-10.449,2.847v1.974a20.548,20.548,0,0,1,10.449-2.9,20.5,20.5,0,0,1,10.438,2.9m-19.946-3.762c.5-.227,1-.444,1.509-.641-.248-.744-.718-1.6-1.6-1.6a1.057,1.057,0,0,0-.935.766c.408.155.739.506,1.023,1.472m1.054,35.96-1.685,1.225a18.606,18.606,0,0,0,21.114-.574h.01l-5.85-18.014h-2.031l4.212,12.966-4.863-3.53-1.638,1.194,8.506,6.18a16.673,16.673,0,0,1-17.776.553m5.043-37.805c.584-.093,1.173-.15,1.767-.191-.362-1.705-1.333-2.884-2.289-2.884a1.2,1.2,0,0,0-1.08.8c.558.1,1.225.785,1.6,2.273m-3.488-1.788a1.146,1.146,0,0,0-1.033.76c.414.057.977.4,1.385,1.736.538-.16,1.085-.3,1.638-.424-.393-1.328-1.106-2.077-1.989-2.077m45.6,36.063H-402.9c-1.793,1.706-3.261,2.036-7.147,2.036h-14.138a19.519,19.519,0,0,1-1.948,1.922h16.086c5.374,0,6.95-.728,9.808-3.958M-440.1-6140.58l-.63,1.927h13.637l-4.863,3.534.625,1.922,8.521-6.185a16.715,16.715,0,0,1-4.981,17.078l.646,1.979a18.659,18.659,0,0,0,5.979-20.267Zm50.249,1.927c-2.181,2.346-3.473,2.76-7.87,2.76h-8.64a7.812,7.812,0,0,1-3.1,1.829v.109h11.74c5.932,0,7.245-.895,10.738-5.034l1.338-1.586h-34.5c.191.63.351,1.276.481,1.927h29.816Zm-50.993-29,1.9-1.385,1.907,1.385-.724-2.238,1.9-1.384h-2.356l-.729-2.238-.723,2.238h-2.361l1.912,1.384Zm44.709,39.1H-398.8c-1.793,1.706-3.255,2.031-7.147,2.031h-8.645a7.782,7.782,0,0,1-3.1,1.829v.109h11.74c5.379-.005,6.961-.75,9.808-3.969m4.113-4.687h-2.661c-1.8,1.705-3.261,2.036-7.152,2.036h-8.64a7.811,7.811,0,0,1-3.1,1.819v.108h11.741c5.379,0,6.961-.733,9.813-3.963m-36.389-24.52a1.05,1.05,0,0,0-.93-.76c-.879,0-1.354.848-1.6,1.6q.767.294,1.5.641c.274-.977.615-1.333,1.023-1.477m-11.746-3.623a6.551,6.551,0,0,1,1.183,1.845l.026.036.026-.036a6.764,6.764,0,0,1,1.189-1.845,6.86,6.86,0,0,0-1.209-1.891,6.841,6.841,0,0,0-1.214,1.891m5.674-1.52v.279c0,.471.765,1.014,1.705,1.014,2.6,0,3.431-2.651,5.71-2.651a2.958,2.958,0,0,1,2.894,3.25,4.268,4.268,0,0,1-2.93,4.041c-.532.2-.827.692-.9,1.54h.119a5.525,5.525,0,0,0,5.648-5.581,4.876,4.876,0,0,0-4.821-5.178c-3.152,0-3.653,3.292-6.925,3.292Zm-2.026-3.766a2.7,2.7,0,0,0,2.7,2.671,2.349,2.349,0,0,0,2.615-2.1,1.039,1.039,0,0,0-.977-1.044.977.977,0,0,0-.977.982.962.962,0,0,0,.181.563,2.255,2.255,0,0,1-2.253-.961.994.994,0,0,0,.92-.977.994.994,0,0,0-.992-.982c-.62.01-1.22.542-1.22,1.845m-2.439-.745a1.546,1.546,0,0,0-1.545,1.546,1.546,1.546,0,0,0,1.545,1.544,1.546,1.546,0,0,0,1.545-1.544,1.546,1.546,0,0,0-1.545-1.546m7.937,8.253a1.138,1.138,0,0,0-1.033-.76c-.884,0-1.6.744-1.989,2.078.553.119,1.1.263,1.638.423.408-1.343.966-1.685,1.385-1.741m-58.728,68.176h-2.5v-5.71h2.594v1.23s.346-1.235,2.145-1.1v2.749s-1.928-.278-2.238.641Zm53.551,0h-2.506v-5.71h2.589v1.23s.346-1.235,2.145-1.1v2.749s-1.928-.278-2.238.641Zm-46.445-4.247s-1.008-.093-1.142,1.328c0,0,.041,1.142,1.054,1.189,0,0,.966.093,1.054-1.147.005,0,.046-1.328-.966-1.369m3.379,1.415a3.017,3.017,0,0,1-3.374,2.967c-3.726.186-3.685-3.106-3.685-3.106.222-2.93,3.643-2.832,3.643-2.832,3.545,0,3.416,2.971,3.416,2.971m82.9-1.415s-1.008-.093-1.142,1.328c0,0,.041,1.142,1.054,1.189,0,0,.961.093,1.054-1.147.005,0,.047-1.328-.966-1.369m3.385,1.415a3.023,3.023,0,0,1-3.379,2.967c-3.726.186-3.679-3.106-3.679-3.106.212-2.93,3.638-2.832,3.638-2.832,3.545,0,3.421,2.971,3.421,2.971m-85.76-2.883h3.07l.971,2.832.873-2.832H-471l-2.062,4.62s-.837,2.2-2.2,1.969h-2.94v-1.654h1.845Zm12.288,1.509s-1.188-.181-1.23,1.333c0,0,0,1.224,1.1,1.224,0,0,1.008.047,1.1-1.184,0,0,.134-1.374-.972-1.374m.884-1.509h2.548v5.715h-2.548v-1.054a2.586,2.586,0,0,1-2.279,1.054,2.672,2.672,0,0,1-2.377-3.022c.093-3.013,2.589-2.878,2.589-2.878a3.261,3.261,0,0,1,2.062.909Zm17.368,1.509s-1.183-.181-1.225,1.333c0,0,0,1.224,1.1,1.224,0,0,1.013.047,1.091-1.184,0,0,.139-1.374-.961-1.374m.879-1.509h2.548v5.715h-2.548v-1.054a2.586,2.586,0,0,1-2.279,1.054,2.662,2.662,0,0,1-2.372-3.017c.093-3.013,2.589-2.878,2.589-2.878a3.258,3.258,0,0,1,2.062.909Zm43.82,5.715H-406v-5.71h2.594v1.23s.346-1.235,2.145-1.1v2.749s-1.933-.278-2.238.641Zm-7.632-4.206s-1.183-.181-1.225,1.333c0,0,0,1.224,1.09,1.224,0,0,1.013.047,1.1-1.184.005,0,.134-1.374-.961-1.374m.873-1.509h2.548v5.715h-2.542v-1.054a2.593,2.593,0,0,1-2.284,1.054A2.656,2.656,0,0,1-414.9-6094c.082-3.013,2.589-2.878,2.589-2.878a3.257,3.257,0,0,1,2.062.909ZM-461.4-6097.7h2.63v6.723h-2.63Zm18.293,1.008h2.63v5.715h-2.63Zm0-1.142h2.63v.754h-2.63Zm15.875,6.856v-5.715h2.542v1.276a2.431,2.431,0,0,1,2.243-1.369,2.012,2.012,0,0,1,1.927,1.142s1.054-1.416,2.238-1.142a1.826,1.826,0,0,1,1.85,1.555l-.005,4.206h-2.718v-2.981s-.134-.869-.744-.77a.755.755,0,0,0-.744.681v3.111h-2.677v-2.878s.134-1.014-.615-.874c0,0-.656-.093-.791.729v3.018Zm41.588-5.529a8.963,8.963,0,0,0-3.023-.46,2.98,2.98,0,0,0-2.982,3.152s0,2.7,3.245,2.832c0,0,2.1,0,2.765-.961v-1.333a3.869,3.869,0,0,1-1.927.414s-1.493.092-1.493-1.194a1.1,1.1,0,0,1,1.142-1.044,4,4,0,0,1,2.279.321Zm-95.831-11.792a8.063,8.063,0,0,0-.7,1.457c0,.253.181.6-.031.693-.212.108-1.886.542-1.736-1.039-1.674.667-6.02,2.6-9.916,2.6-2.325,0-3.5.284-4.46-.739-.46-.641-1.659-1.571-2.449.134-.822,1.173-.852,2.258-1.369,2.155-.548-.1-.791-1.235-.941-2.6-.579,1.933-.109,4.444.579,4.408.662,0,1.07-1.214,1.416-1.958s.481-1.065.987-1.085c1.886.1-.093,2.062,5.994,1.772,2.832-.284,6.48-.853,8.95-2.594.46-.382.574-.481.7.248.155.8.486,1.112,1.338,1.044.842-.051,2.4-1.545,1.638-4.5m106.853-2.248a8.617,8.617,0,0,1-1.313,1.963c0,.915.155,6.78-.057,7.188.517-.945,1.494-2.119,1.426-3.007s.093-5.731-.057-6.144m-8.061,1.271-1.525,1.075.884.827,1.369-1.235Z" transform="translate(-13766.768 -6697.488)" fill="#fff"/>
    <path id="Path_2206" data-name="Path 2206" d="M-271.426-5909.181a1.118,1.118,0,0,0-1.344-1.11c0,.6.186,1.147.491,1.209s.76.1.853-.1m10.831.61c-1.065-.6-4.32.6-5.286,1.143,1.39.155,5.255-.005,5.286-1.143m11.167-4.537s-.579.733-.76,1.018-.057.383-.093.884a3.4,3.4,0,0,1-.6,2.154,19.1,19.1,0,0,0,3.132.827l-1.493,1.778a11.018,11.018,0,0,0-2.4.124c-.672.063-4.046.543-5.508.729a57.806,57.806,0,0,1-7.576.222,17.011,17.011,0,0,1-5.292-1.075s-.915,1.266-1.493,1.421a13.124,13.124,0,0,1-5.111-.217c.791-.062,5.147-1.146,5.9-2-1.793.062-3.193-.641-3.312-1.013s.455-1.209.755-1.778,1.1-2.025,1.581-2c.884.062,1.736,1.654,2.16,2.822a3.033,3.033,0,0,0,2.677,1.173c.181-.129,1.1-.636,1.519-.889l-.057-2.341c-.026-.445-.336-.6-.393-1.013a6.192,6.192,0,0,1,1.065-2.475c-.155.48.424,1.049.542,1.684s-.393.853-.455,1.013a17.582,17.582,0,0,0-.031,2.821c3.834-1.845,4.589-1.586,5.416-1.013s.517,1.705-.884,2.822a23.471,23.471,0,0,0,5.54-.543c-.124-.1-2.77-.6-2.77-.6a8.079,8.079,0,0,0,.9-1.457l4.687-.062c.615,0,.615-.445.615-.445l.031-1.2c0-.32-.124-.382-.212-1.11s1.219-1.773,1.219-1.773c-.3,1.075.005,1.132.7,1.514m-27.987,5.374c-.026-.408-.341-.96-1.421-.9a4.511,4.511,0,0,0-2.713,1.8c.429.025,3.173-.119,4.134-.9m-3.654-5.162a2.4,2.4,0,0,1,.589.356c.093,0-.062.522-.615.832a15.765,15.765,0,0,1-.119,3.519c3.793-2.8,5.663-2.568,5.886-1.281s-2.372,3.9-4.563,4.092-3.281-.336-5.478-1.333c.414.1,1.509-.051,2.744.145a3.6,3.6,0,0,1,1-1.143l-.274-3.24c-.041-.372-.372-.423-.279-1.234s.481-1.83,1.168-1.948a2.844,2.844,0,0,0-.062,1.235m-6.981-1.421c-.113.232-1.142,2.046-1.142,2.046.093,1.544.294,5.823-.14,6.815a6.283,6.283,0,0,0,1.416-2.821c0-.005-.026-5.782-.134-6.041m-4.377,6.185c-.062.408-.145,1.437,1.018,1.2.346-.237-.108-1.343-1.013-1.2m-.078-5.358c0,.139.641.284.682.667s-.114.661-.5,1.142l-.067,1.167s-.021.543.139.708c.362.191.708-.33,1.3-.119.966.352.388,1.928.181,2.718s-.935,2.087-1.416,2.067c-.744-.036-1.023-.62-1.225-1.736a11.9,11.9,0,0,1-4.863,1.545c-1.4-.025-1.829-1.281-2.145-2.4a4.232,4.232,0,0,1-3.767,2.466,7.686,7.686,0,0,1-4.956-2.326l-.248.067a1.981,1.981,0,0,1-1.958,1.783c-.708.072-1.462-1-1.829-2.046a20.857,20.857,0,0,1-7.415,1.954c-5.684.067-4.635-2.264-5.844-2.237-.506.015-.641.16-.982.9s-.868,1.917-1.535,1.917c-1.638,0-1.344-3.064-.455-4.537.274-.5.388-.211.248.067s-.46,2.217.093,2.31c.382.062.982-.382,1.8-1.545a1.612,1.612,0,0,1,2.6-.362c.868,1.287,2.191,1.334,4.516,1.385s3.808-.382,7.488-1.953a1.565,1.565,0,0,0,.522,1.545c.568.424,1.529.646,1.871-.31l-1.53-1.375c-.522-.455-.868-.455-.749-1.809,0-2.548,7.415-2.16,7.415-2.16.8,0,1.581-.119,1.654.569.129,1.571-1.4,2.614-2.837,3.048.439-.237,1.529-1.049,1.622-1.426.1-.424-.052-.594-.46-.568s-5.813.522-5.813.522c-.3.046-.119.31-.119.31l4.858,3.4a5.393,5.393,0,0,0,4.909,0,1.336,1.336,0,0,0,.982-1.447l.093-3.163a6.334,6.334,0,0,0,.868-1.281l-.093,5.084c.026.6.093,1.6.8,1.69,1.571.269,4.676-1.277,5.431-1.855q.015-1.069-.046-2.14c0-.331-.522-.454-.522-.852a9.265,9.265,0,0,1,1.251-2.382,2.931,2.931,0,0,0,.052,1m-35.03.677-1.509,1.189,1.008.522s.961-.806,1.369-.755a2.728,2.728,0,0,1,1.008.568,16.2,16.2,0,0,1,1.5-1.188,2.519,2.519,0,0,0-.868-.666,6.553,6.553,0,0,1-1.411.806,4.324,4.324,0,0,1-1.1-.476" transform="translate(-13895.49 -6893.498)" fill="#fff"/>
    <path id="Path_2207" data-name="Path 2207" d="M-390.368-5904.389a9.846,9.846,0,0,1-1.612.92l.972.595s1.132-.667,1.369-.569a8.037,8.037,0,0,1,.853.506l1.555-.826-.734-.667a5.774,5.774,0,0,1-1.457.6,3.362,3.362,0,0,1-.946-.559m-17.326-7.6c-.124.233-1.147,2.046-1.147,2.046.32,1.9.842,5.994.408,6.986a6.32,6.32,0,0,0,1.323-3.09s-.481-5.679-.584-5.943m-11.586,4.583,1.581-.692a8.9,8.9,0,0,0-2.279-.16Zm7.581,1.421c-.067.4-.155,1.457.853,1.271a.836.836,0,0,0-.853-1.276m-12.965,1.054c-1.55.13-4.1,2.7-5.441,2.129-.785-.336-.062-2.036.486-2.475-.46,1.654-.46,1.458-.124,1.742s2.465-1.55,3.5-2.217a12.234,12.234,0,0,1,5.147-1.3,1.507,1.507,0,0,0-.641-.6,6.661,6.661,0,0,0-1.034-.187l.822-1.685c1.829-.372,5.689.253,6.7.506l-.4,1.969a3.936,3.936,0,0,0-1.674.821c1.034,1.173,3.871,0,4.625-.568.041-.31,0-2.025,0-2.025,0-.341-.579-.336-.579-.739a9.115,9.115,0,0,1,1.256-2.377,2.809,2.809,0,0,0,.041,1c0,.145.543.243.584.631a1.415,1.415,0,0,1-.4,1.178l-.036.925s-.021.548.139.713c.367.191.708-.331,1.307-.119.961.346.212,2.078,0,2.858s-.455,1.756-1.09,1.668c-.972-.15-.858-.883-1.065-2-.542-.237-2,1.508-4.728,1a5.8,5.8,0,0,1-3.059-1.71c-.289.331-2.9.264-4.33.868" transform="translate(-13820.933 -6895.561)" fill="#fff"/>
    <path id="Path_2208" data-name="Path 2208" d="M-469.15-5911.059l-1.643.92.915.6,1.333-.915Zm-26.411.636,1.034.407s-1.276,1.044-1.369,1.075-.935-.444-1.245-.346a4.859,4.859,0,0,0-1.034.889s-.977-.352-1.189-.413a8.4,8.4,0,0,0,1.432-1.3c.6.253,1.214.6,1.4.537s.615-.853.977-.853m11.167,6.847c.181,0,1.157-.821,1.4-.8a4.7,4.7,0,0,1,1.034.672,11.061,11.061,0,0,1-1.581,1.074c-.155-.03-.852-.6-1.013-.568-.145.031-1.333.853-1.333.853l-1.276-.562a13.162,13.162,0,0,1,1.581-1.209c.212-.036.977.475,1.189.537m8.03.031-1.219.641.6.755,1.276-.827Z" transform="translate(-13769.72 -6896.25)" fill="#fff"/>
  </g>
</svg>
