<svg xmlns="http://www.w3.org/2000/svg" xmlns:xlink="http://www.w3.org/1999/xlink" width="60" height="73" viewBox="0 0 60 73">
  <defs>
    <linearGradient id="linear-gradient" x1="0.5" y1="1" x2="0.5" gradientUnits="objectBoundingBox">
      <stop offset="0" stop-color="#fff" stop-opacity="0"/>
      <stop offset="1" stop-color="#fff" stop-opacity="0.451"/>
    </linearGradient>
  </defs>
  <g id="Group_2647" data-name="Group 2647" transform="translate(14266 12791)">
    <rect id="Rectangle_544" data-name="Rectangle 544" width="55" height="73" rx="10" transform="translate(-14263 -12791)" opacity="0" fill="url(#linear-gradient)"/>
    <g id="Group" transform="translate(-14265.749 -12786.703)">
      <rect id="Rectangle_4_" width="60" height="62" transform="translate(-0.251 -0.297)" fill="none"/>
      <path id="Shape" d="M8.834,24.786H3.12a2.978,2.978,0,1,1,0-5.949s0-5.949,0-5.949A9.945,9.945,0,0,1,9.866,3.6v-.13A3.556,3.556,0,0,1,13.5,0a3.554,3.554,0,0,1,3.635,3.468V3.6a9.948,9.948,0,0,1,6.75,9.29v5.947a2.978,2.978,0,1,1-.006,5.95H18.167A4.586,4.586,0,0,1,13.5,29,4.586,4.586,0,0,1,8.834,24.786Z" transform="translate(16.749 16.703)" fill="#fff"/>
      <circle id="Oval" cx="3.782" cy="3.782" r="3.782" transform="translate(33.784 19.741)" fill="#71c9a3" stroke="#ab384a" stroke-miterlimit="10" stroke-width="1.083"/>
    </g>
  </g>
</svg>
