<svg xmlns="http://www.w3.org/2000/svg" viewBox="0 0 48 49"><defs><style>.cls-1{fill:#d5123a;}.cls-2{fill:#fff;}</style></defs><g id="Layer_2" data-name="Layer 2"><g id="Layer_1-2" data-name="Layer 1"><g id="Group_2072" data-name="Group 2072"><g id="Group_129-10" data-name="Group 129-10"><rect id="Rectangle_3-14" data-name="Rectangle 3-14" class="cls-1" width="48" height="49" rx="10"/></g></g><g id="Group_2085" data-name="Group 2085"><g id="Group_2080" data-name="Group 2080"><path id="Path_2181" data-name="Path 2181" class="cls-2" d="M19.84,24.21H20l.2,0a.35.35,0,0,0,.13-.11l1.28-1.62a.47.47,0,0,1,.17-.14.54.54,0,0,1,.22,0h.74l-1.55,1.92a.86.86,0,0,1-.29.25.72.72,0,0,1,.19.11.69.69,0,0,1,.16.18l1.6,2.17h-.76a.44.44,0,0,1-.22,0,.3.3,0,0,1-.13-.12L20.47,25a.28.28,0,0,0-.14-.12.59.59,0,0,0-.23,0h-.27v2H19V22.27h.86Z"/><path id="Path_2182" data-name="Path 2182" class="cls-2" d="M24.86,22.27a2.71,2.71,0,0,1,.8.11,1.45,1.45,0,0,1,.56.3,1.18,1.18,0,0,1,.33.47,1.71,1.71,0,0,1,.11.59,1.88,1.88,0,0,1-.11.62,1.36,1.36,0,0,1-.34.48,1.47,1.47,0,0,1-.56.31,2.36,2.36,0,0,1-.79.11h-.64v1.63h-.86V22.27Zm0,2.33a1.52,1.52,0,0,0,.42-.06,1,1,0,0,0,.29-.17.65.65,0,0,0,.17-.27,1,1,0,0,0,.06-.35,1,1,0,0,0-.06-.34.56.56,0,0,0-.17-.26.75.75,0,0,0-.29-.16,1.21,1.21,0,0,0-.42,0h-.64v1.65Z"/><path id="Path_2183" data-name="Path 2183" class="cls-2" d="M28.18,26.89h-.86V22.27h.86Z"/></g><g id="Group_2082" data-name="Group 2082"><g id="Group_2081" data-name="Group 2081"><path id="Path_2184" data-name="Path 2184" class="cls-2" d="M23.55,39.16H22a.45.45,0,0,1-.52-.4v0c-.16-.76-.33-1.51-.48-2.27a.33.33,0,0,0-.28-.32,11,11,0,0,1-3.29-1.36.32.32,0,0,0-.4,0c-.64.43-1.29.85-1.94,1.27-.31.2-.45.19-.71-.08l-2.22-2.21a.48.48,0,0,1-.08-.67l0,0,1.28-2a.3.3,0,0,0,0-.38A11,11,0,0,1,12,27.43a.31.31,0,0,0-.28-.26L9.46,26.7c-.37-.08-.46-.18-.46-.55V23a.47.47,0,0,1,.41-.52h0c.77-.15,1.53-.32,2.3-.48a.32.32,0,0,0,.29-.28,11.28,11.28,0,0,1,1.36-3.29.32.32,0,0,0,0-.4c-.43-.64-.85-1.29-1.27-1.94-.2-.31-.18-.45.08-.71l2.19-2.19c.27-.28.4-.29.73-.08.65.42,1.3.84,1.94,1.27a.3.3,0,0,0,.38,0A11,11,0,0,1,20.73,13a.31.31,0,0,0,.26-.28l.48-2.3c.08-.34.19-.43.54-.43h3.16a.46.46,0,0,1,.52.4v0c.16.77.33,1.53.48,2.3a.31.31,0,0,0,.28.29,11.3,11.3,0,0,1,3.29,1.37.33.33,0,0,0,.4,0c.64-.43,1.29-.85,1.94-1.27a.45.45,0,0,1,.64,0l.07.08L35,15.37c.27.27.29.4.07.73-.42.65-.83,1.3-1.26,1.94a.3.3,0,0,0,0,.38,11.75,11.75,0,0,1,1.39,3.31.38.38,0,0,0,.26.25c.77.18,1.53.34,2.3.49a.47.47,0,0,1,.43.5h0v3.2a.48.48,0,0,1-.41.52h0l-2.3.47a.34.34,0,0,0-.29.29,11.3,11.3,0,0,1-1.37,3.29.32.32,0,0,0,0,.4c.43.64.84,1.29,1.26,1.93.2.31.19.46-.07.72L32.78,36a.49.49,0,0,1-.68.09l0,0-1.93-1.27a.35.35,0,0,0-.43,0,11.05,11.05,0,0,1-3.27,1.36.33.33,0,0,0-.29.31c-.14.75-.31,1.49-.47,2.24-.08.38-.18.46-.57.46Zm8.77-25.23c-.67.44-1.37.88-2.05,1.34a.55.55,0,0,1-.67,0,10.49,10.49,0,0,0-3.72-1.54.54.54,0,0,1-.45-.46c-.14-.74-.31-1.47-.45-2.21,0-.19-.12-.24-.3-.24h-2.2c-.21,0-.27.07-.3.27-.14.72-.31,1.43-.45,2.15a.55.55,0,0,1-.48.5,10.33,10.33,0,0,0-3.65,1.5.62.62,0,0,1-.77,0c-.66-.46-1.34-.88-2-1.3l-1.92,1.91c.44.66.87,1.35,1.32,2a.54.54,0,0,1,0,.69,10.8,10.8,0,0,0-1.54,3.73.5.5,0,0,1-.46.44c-.74.15-1.47.32-2.21.46-.17,0-.23.1-.23.27,0,.74,0,1.49,0,2.23,0,.19.06.26.25.29.73.14,1.45.32,2.17.46a.54.54,0,0,1,.49.48,10.55,10.55,0,0,0,1.49,3.62.63.63,0,0,1,0,.8c-.45.66-.88,1.34-1.28,2l1.91,1.93,2-1.33a.51.51,0,0,1,.64,0,10.89,10.89,0,0,0,3.76,1.55.49.49,0,0,1,.42.44c.15.74.32,1.47.46,2.21,0,.18.09.25.29.25.74,0,1.48,0,2.23,0,.19,0,.25-.07.28-.25.14-.72.31-1.43.45-2.15a.59.59,0,0,1,.53-.52A10,10,0,0,0,29.47,34a.73.73,0,0,1,1,0c.63.44,1.28.85,1.9,1.25l1.91-1.9c-.44-.67-.88-1.36-1.34-2a.56.56,0,0,1,0-.69,10.72,10.72,0,0,0,1.53-3.7.52.52,0,0,1,.45-.46c.75-.14,1.49-.31,2.24-.46.16,0,.21-.09.21-.26V23.48c0-.18,0-.25-.23-.28-.72-.14-1.44-.31-2.17-.45a.57.57,0,0,1-.51-.5,9.28,9.28,0,0,0-1.33-3.33,1,1,0,0,1,0-1.37c.41-.54.76-1.14,1.11-1.69Z"/></g><path id="Path_2185" data-name="Path 2185" class="cls-2" d="M23.61,33.38a8.77,8.77,0,1,1,8.77-8.77A8.77,8.77,0,0,1,23.61,33.38Zm0-16.73a8,8,0,1,0,8,8h0A8,8,0,0,0,23.61,16.65Z"/></g></g></g></g></svg>