<svg xmlns="http://www.w3.org/2000/svg" viewBox="0 0 48 49"><defs><style>.cls-1{fill:#ffe2e2;}.cls-2{fill:#b75065;}</style></defs><g id="Layer_2" data-name="Layer 2"><g id="Layer_1-2" data-name="Layer 1"><g id="Group_129-9" data-name="Group 129-9"><rect id="Rectangle_3-13" data-name="Rectangle 3-13" class="cls-1" width="48" height="49" rx="10"/></g><g id="Group_2084" data-name="Group 2084"><path id="Path_2179" data-name="Path 2179" class="cls-2" d="M23.41,39.15H21.85a.46.46,0,0,1-.52-.4v0c-.16-.76-.33-1.51-.47-2.27a.34.34,0,0,0-.29-.32,11.3,11.3,0,0,1-3.29-1.37.32.32,0,0,0-.4,0c-.64.43-1.29.85-1.94,1.27-.31.2-.45.18-.71-.08-.74-.74-1.47-1.48-2.22-2.21a.5.5,0,0,1-.08-.68l0,0c.43-.65.85-1.31,1.29-2a.29.29,0,0,0,0-.37,11.21,11.21,0,0,1-1.37-3.32.31.31,0,0,0-.28-.26l-2.26-.48c-.37-.08-.46-.18-.46-.54V23a.45.45,0,0,1,.4-.51h0l2.3-.47a.33.33,0,0,0,.29-.28,11.08,11.08,0,0,1,1.37-3.29.32.32,0,0,0,0-.4L12,16.07c-.2-.31-.18-.45.08-.72l2.19-2.19c.28-.27.41-.29.74-.07l1.94,1.26a.29.29,0,0,0,.37,0A11,11,0,0,1,20.6,13a.32.32,0,0,0,.26-.28c.15-.76.31-1.53.48-2.3.07-.34.18-.43.54-.43H25a.48.48,0,0,1,.52.41v0c.15.76.32,1.53.47,2.3a.34.34,0,0,0,.29.29,11,11,0,0,1,3.29,1.36.32.32,0,0,0,.4,0l1.93-1.27a.47.47,0,0,1,.65,0l.07.09,2.19,2.19c.27.27.28.41.07.74-.42.64-.84,1.3-1.27,1.94a.3.3,0,0,0,0,.37A11.81,11.81,0,0,1,35,21.72a.44.44,0,0,0,.27.25l2.29.49A.46.46,0,0,1,38,23v0c0,1.06,0,2.13,0,3.19a.47.47,0,0,1-.41.52h0c-.77.16-1.53.33-2.3.48a.32.32,0,0,0-.29.28,11.3,11.3,0,0,1-1.37,3.29.32.32,0,0,0,0,.4c.43.64.85,1.29,1.27,1.94.2.31.18.45-.08.71-.74.74-1.48,1.47-2.21,2.22a.49.49,0,0,1-.68.08l0,0L30,34.79a.35.35,0,0,0-.43,0,11.36,11.36,0,0,1-3.26,1.35.35.35,0,0,0-.3.31c-.14.75-.31,1.49-.46,2.24-.08.38-.18.46-.58.46Zm8.77-25.23c-.67.44-1.37.88-2.05,1.34a.54.54,0,0,1-.66,0,10.8,10.8,0,0,0-3.73-1.54.52.52,0,0,1-.45-.46c-.14-.73-.31-1.47-.45-2.2,0-.2-.12-.24-.3-.24h-2.2c-.21,0-.27.07-.31.26-.14.72-.31,1.43-.45,2.15a.54.54,0,0,1-.48.5,10.67,10.67,0,0,0-3.64,1.5.6.6,0,0,1-.77,0c-.66-.45-1.34-.88-2-1.3l-1.91,1.92c.43.66.87,1.35,1.32,2a.57.57,0,0,1,0,.69,10.61,10.61,0,0,0-1.54,3.73.52.52,0,0,1-.47.44c-.73.14-1.46.31-2.2.46-.18,0-.24.1-.23.27v2.23c0,.19.05.26.24.29.73.14,1.45.32,2.18.46a.55.55,0,0,1,.49.48,10.36,10.36,0,0,0,1.49,3.62.63.63,0,0,1,0,.8c-.45.66-.88,1.34-1.29,2l1.92,1.93,2-1.33a.51.51,0,0,1,.64,0,10.84,10.84,0,0,0,3.75,1.55.5.5,0,0,1,.43.44c.14.74.31,1.47.46,2.21,0,.18.08.25.28.25h2.23c.19,0,.25-.07.28-.25.14-.72.32-1.43.45-2.15a.59.59,0,0,1,.53-.52A10,10,0,0,0,29.32,34a.73.73,0,0,1,.95,0c.63.44,1.28.85,1.9,1.25l1.91-1.9c-.44-.68-.88-1.37-1.33-2a.56.56,0,0,1,0-.69,10.81,10.81,0,0,0,1.52-3.7.52.52,0,0,1,.46-.45L37,26c.16,0,.22-.09.22-.25,0-.75,0-1.51,0-2.26,0-.17-.06-.24-.23-.28-.73-.14-1.45-.31-2.18-.45a.55.55,0,0,1-.5-.5,9.45,9.45,0,0,0-1.34-3.33,1,1,0,0,1,0-1.36c.42-.55.76-1.15,1.12-1.69Z"/><path id="Path_2180" data-name="Path 2180" class="cls-2" d="M14.69,24.57a8.71,8.71,0,1,1,0,.08Zm.88.44s0,.06,0,.1a7.51,7.51,0,0,0,.86,3.07.39.39,0,0,0,.29.13H20c-.12-1.13-.23-2.22-.34-3.31ZM20,20.85l-.07,0H16.63a.35.35,0,0,0-.25.19,13.75,13.75,0,0,0-.57,1.51,16,16,0,0,0-.3,1.59h4.15c.1-1.1.21-2.18.32-3.27Zm6.92,7.47h3.4c.07,0,.18-.12.22-.2.22-.61.46-1.22.64-1.84A9.09,9.09,0,0,0,31.37,25H27.24c-.12,1.11-.22,2.19-.34,3.31Zm0-7.49.33,3.31h4.08a.64.64,0,0,1,0-.07,7.41,7.41,0,0,0-.86-3.1.33.33,0,0,0-.29-.13H26.9ZM23,24.14V20.83c-.66,0-1.3,0-1.94,0a.28.28,0,0,0-.2.21c-.09.5-.18,1-.23,1.51s-.07,1.05-.1,1.58Zm3.34,0A17,17,0,0,0,26,21c0-.05-.08-.13-.13-.13h-2v3.3ZM20.48,25c.11,1,.19,1.89.32,2.81.1.61,0,.5.6.5.34,0,.68,0,1,0H23V25Zm5.94,0H23.88v3.31h2a.22.22,0,0,0,.17-.15c.15-1,.27-2.08.41-3.15Zm-6.19-5a9.16,9.16,0,0,1,1.4-3.12A8,8,0,0,0,17,20Zm1.41,12.3a9.22,9.22,0,0,1-1.41-3.11H17a8,8,0,0,0,4.64,3.11Zm3.61,0a8.06,8.06,0,0,0,4.64-3.12H26.65a9,9,0,0,1-1.4,3.12Zm0-15.42a9.06,9.06,0,0,1,1.4,3.1h3.23a8.05,8.05,0,0,0-4.63-3.1ZM23,20V16.73A5.71,5.71,0,0,0,21.09,20Zm2.8,0a5.62,5.62,0,0,0-1.91-3.24V20ZM23,29.16H21.09A5.75,5.75,0,0,0,23,32.41Zm2.79,0h-1.9v3.24a5.86,5.86,0,0,0,1.9-3.24Z"/></g></g></g></svg>