<svg xmlns="http://www.w3.org/2000/svg" xmlns:xlink="http://www.w3.org/1999/xlink" viewBox="0 0 46.23 49.11"><defs><style>.cls-1{fill:none;}.cls-2{fill:#753cef;}.cls-3{fill:#e24545;}.cls-4{clip-path:url(#clip-path);}.cls-5{fill:#421f1f;}.cls-6{fill:#f2ad80;}.cls-7{fill:#d99062;}.cls-8{fill:#20283e;}.cls-9{fill:#e3d4cf;}.cls-10{fill:#78acc1;}.cls-11{fill:#9ccfe3;}.cls-12{fill:#fff;}.cls-13{fill:#6794a6;}.cls-14{fill:#10182e;}.cls-15{fill:#344063;}</style><clipPath id="clip-path"><circle class="cls-1" cx="23.12" cy="23.12" r="23.12"/></clipPath></defs><g id="Layer_2" data-name="Layer 2"><g id="Layer_1-2" data-name="Layer 1"><g id="Avatar"><circle id="Ellipse_1" data-name="Ellipse 1" class="cls-2" cx="23.12" cy="23.12" r="23.12"/><path id="Ellipse_2-2" data-name="Ellipse 2-2" class="cls-3" d="M23.12,0A23.12,23.12,0,1,1,0,23.12,23.12,23.12,0,0,1,23.12,0Z"/><g class="cls-4"><g id="Avatar-2"><g id="Illustration"><path id="Vector" class="cls-5" d="M23.38,6.1c-10.08.11-8.06,6.76-8.06,6.76a9.27,9.27,0,0,0-.1,6.6L23.38,21l8.16-1.56a8.77,8.77,0,0,0-.1-6.6S33.31,6,23.38,6.1Z"/><path id="Vector-2" class="cls-6" d="M19.46,26.32v4.29l2.7,2.82h2.45l2.7-2.82V26.32L23.38,28Z"/><path id="Vector-3" class="cls-7" d="M19.46,29.33a6.18,6.18,0,0,0,7.84.05V26.32L23.38,28l-3.92-1.71Z"/><path id="Vector-4" class="cls-8" d="M37.37,35.39c-1.67-1.31-7.54-3-7.54-3L27.38,30l-4,2.24-4-2.24-2.45,2.45s-6.11,1.78-7.54,3c-1.95,1.58-2.76,2.94-3,6.12a58.4,58.4,0,0,0,.12,7.6H40.25a60.22,60.22,0,0,0,.12-7.6C40.12,38.33,39.35,36.94,37.37,35.39Z"/><path id="Vector-5" class="cls-9" d="M22.85,49.11h1L30,32.48l-.18,0-6.45-.21-6.45.21-.18,0Z"/><path id="Vector-6" class="cls-10" d="M25.57,34.51l-2.19-2.28-2.2,2.28L22.5,37l-1.18,8.32,1.53,3.79h1l1.54-3.79S24.23,37,24.26,37Z"/><g id="Group-2"><path id="Vector-7" class="cls-11" d="M21.41,44.65l-.09.67.23.57,3,1.61L25,46.44Z"/><path id="Vector-8" class="cls-11" d="M21.69,42.68l3.65,2-.2-1.41-3.29-1.64Z"/><path id="Vector-9" class="cls-11" d="M22.13,39.62l2.7,1.44c-.07-.47-.14-.94-.2-1.39L22.29,38.5Z"/></g><path id="Vector-10" class="cls-12" d="M20.85,36.82l-3.92-4.38L19.38,30l4,2.24Z"/><path id="Vector-11" class="cls-12" d="M25.91,36.82l3.92-4.38L27.38,30l-4,2.24S24.58,34.37,25.91,36.82Z"/><path id="Vector-12" class="cls-13" d="M24.26,37a5.77,5.77,0,0,1-1.76,0l-.12.89a3.76,3.76,0,0,0,2-.25C24.3,37.35,24.27,37.09,24.26,37Z"/><path id="Vector-13" class="cls-6" d="M23.38,9.48a11,11,0,0,0-4.33.64c-2.71.78-2.71,4.27-2.71,4.27A64.72,64.72,0,0,0,16.73,22c.38,1.93,1.61,5.42,2.91,6.46a6.06,6.06,0,0,0,3.74,1.16,6,6,0,0,0,3.74-1.16C28.41,27.43,29.64,24,30,22a64.72,64.72,0,0,0,.39-7.62s0-3.49-2.71-4.26A11.21,11.21,0,0,0,23.38,9.48Z"/><path id="Vector-14" class="cls-6" d="M14.27,18.22c-1.55.6.08,4.3,1.29,5a2.13,2.13,0,0,0,1.89.35l-.69-3.28S15.82,17.61,14.27,18.22Z"/><path id="Vector-15" class="cls-6" d="M32.49,18.22c1.55.6-.08,4.3-1.29,5a2.13,2.13,0,0,1-1.89.35L30,20.28S30.94,17.61,32.49,18.22Z"/><path id="Vector-16" class="cls-14" d="M8,36.71a7.82,7.82,0,0,0-1.61,4.8,60.25,60.25,0,0,0,.12,7.6h4.6a42.07,42.07,0,0,0-.71-5.7A50,50,0,0,0,8,36.71Z"/><path id="Vector-17" class="cls-14" d="M36.35,43.4a42.2,42.2,0,0,0-.7,5.71h4.6a60.25,60.25,0,0,0,.12-7.6,7.77,7.77,0,0,0-1.61-4.82A53.09,53.09,0,0,0,36.35,43.4Z"/><path id="Vector-18" class="cls-15" d="M15.67,32.83l-.14,0L15.2,45.05l3.84.77-.46,3.29h4.49L17,32.44Z"/><path id="Vector-19" class="cls-15" d="M28.29,49.11l-.58-3.29,3.84-.77-.32-12.18-1.46-.43L23.69,49.11Z"/><path id="Vector-20" class="cls-5" d="M29,20.62c-.29,1.85-.55,3.44-1.33,4.05s-1.44-.92-1.92-1.3a3.57,3.57,0,0,0-2.3-.62,4.39,4.39,0,0,0-2,.38c-.6.32-1.37,2.2-2.24,1.53S18,22.76,17.7,20.91H16.58c0,.42.09.8.15,1.1s.1.45.16.7c.13.46.28,1,.44,1.49.58,1.72,1.43,3.56,2.31,4.26a6,6,0,0,0,3.74,1.16,6,6,0,0,0,3.74-1.16c1.29-1,2.53-4.52,2.91-6.46a10.52,10.52,0,0,0,.15-1.1Z"/><path id="Vector-21" class="cls-5" d="M15.55,14.7a34,34,0,0,0,1.36,7.94L18.1,23a54.71,54.71,0,0,1-.77-6.63,5.24,5.24,0,0,1,1-4.09c.79-1.18,4.07-1.16,5.05-1.16s4.26,0,5.05,1.16a5.3,5.3,0,0,1,1,4.09A54.71,54.71,0,0,1,28.66,23l1.19-.31a34.47,34.47,0,0,0,1.36-7.94c0-4-3.91-6.5-7.56-6.43C19.79,8.35,15.55,10.23,15.55,14.7Z"/></g></g></g></g></g></g></svg>