<svg xmlns="http://www.w3.org/2000/svg" width="17.691" height="17.722" viewBox="0 0 17.691 17.722">
  <g id="Groupe_2048" data-name="Groupe 2048" transform="translate(-2522.689 -1814.849)">
    <path id="Tracé_2173" data-name="Tracé 2173" d="M2531.513,1832.571h-6.927a1.777,1.777,0,0,1-1.9-1.9q0-6.957,0-13.914a1.777,1.777,0,0,1,1.9-1.9q5.766,0,11.532,0a.834.834,0,0,1,.638.262q1.674,1.69,3.361,3.367a.819.819,0,0,1,.26.621q-.007,5.795,0,11.589a1.774,1.774,0,0,1-1.881,1.883Zm-5.876-1.182v-.219q0-1.9,0-3.8a1.774,1.774,0,0,1,1.879-1.885h8.031a1.773,1.773,0,0,1,1.881,1.882q0,1.91,0,3.82v.2c.4,0,.773,0,1.147,0a.588.588,0,0,0,.62-.628q0-5.7,0-11.4a.324.324,0,0,0-.081-.208q-1.506-1.519-3.02-3.029a.24.24,0,0,0-.134-.082c-.292-.007-.584,0-.889,0v.222q0,1.615,0,3.229a1.183,1.183,0,0,1-1.262,1.272h-4.55a1.183,1.183,0,0,1-1.263-1.271q0-1.624,0-3.248v-.206H2524.6c-.529,0-.733.206-.733.737q0,6.938,0,13.876c0,.055,0,.111,0,.166a.584.584,0,0,0,.562.573C2524.823,1831.4,2525.216,1831.388,2525.637,1831.388Zm1.179-.012h9.434v-.158q0-1.947,0-3.894a.6.6,0,0,0-.664-.66h-8.105a.6.6,0,0,0-.664.658q0,1.126,0,2.251Zm7.067-15.33h-4.694v3.521h4.694Z" transform="translate(0 0)" fill="#fff"/>
  </g>
</svg>
