<svg xmlns="http://www.w3.org/2000/svg" xmlns:xlink="http://www.w3.org/1999/xlink" width="66" height="52" viewBox="0 0 66 52">
  <defs>
    <filter id="BG" x="0" y="0" width="66" height="52" filterUnits="userSpaceOnUse">
      <feOffset dy="3" input="SourceAlpha"/>
      <feGaussianBlur stdDeviation="3" result="blur"/>
      <feFlood flood-opacity="0.161"/>
      <feComposite operator="in" in2="blur"/>
      <feComposite in="SourceGraphic"/>
    </filter>
  </defs>
  <g id="Group_2710" data-name="Group 2710" transform="translate(9 6)">
    <g id="Phone" transform="translate(0)">
      <g transform="matrix(1, 0, 0, 1, -9, -6)" filter="url(#BG)">
        <rect id="BG-2" data-name="BG" width="48" height="34" rx="3" transform="translate(9 6)" fill="#e45d6f"/>
      </g>
    </g>
    <g id="Group_2196" data-name="Group 2196" transform="translate(14.362 7.866)">
      <path id="Path_2198" data-name="Path 2198" d="M9.826,0a1.791,1.791,0,0,1,1,.523,1.614,1.614,0,0,1-.07,2.272c-.156.163-.319.32-.479.48l-6.2,6.2c-.049.048-.1.089-.227.193a1.154,1.154,0,0,1,.225.132q3.311,3.3,6.617,6.61a1.679,1.679,0,0,1,.541,1.528,1.616,1.616,0,0,1-2.571.994,3.075,3.075,0,0,1-.253-.224Q4.482,14.791.563,10.872A1.585,1.585,0,0,1,.1,9.11,1.908,1.908,0,0,1,.536,8.44Q4.478,4.477,8.436.53A1.959,1.959,0,0,1,9.449,0Z" transform="translate(0)" fill="#fff3f5"/>
      <path id="Path_2199" data-name="Path 2199" d="M9.64,15.364a2.314,2.314,0,0,1-.4.9A1.562,1.562,0,0,1,7,16.487c-.368-.329-.7-.7-1.04-1.06Q3.25,12.576.545,9.721A1.777,1.777,0,0,1,.234,7.559a1.929,1.929,0,0,1,.3-.4Q3.662,3.856,6.792.562A1.562,1.562,0,0,1,8.838.251,1.671,1.671,0,0,1,9.6,1.385c.009.042.023.084.035.125v.414A2.457,2.457,0,0,1,8.864,3.26Q6.459,5.775,4.071,8.306c-.038.04-.072.082-.115.131l.159.171q2.37,2.5,4.742,4.99a2.553,2.553,0,0,1,.782,1.314Z" transform="translate(9.637 1.614)" fill="#ffe2e2"/>
    </g>
  </g>
</svg>
