<svg xmlns="http://www.w3.org/2000/svg" xmlns:xlink="http://www.w3.org/1999/xlink" width="66" height="52" viewBox="0 0 66 52">
  <defs>
    <filter id="BG" x="0" y="0" width="66" height="52" filterUnits="userSpaceOnUse">
      <feOffset dy="3" input="SourceAlpha"/>
      <feGaussianBlur stdDeviation="3" result="blur"/>
      <feFlood flood-opacity="0.161"/>
      <feComposite operator="in" in2="blur"/>
      <feComposite in="SourceGraphic"/>
    </filter>
  </defs>
  <g id="Group_2708" data-name="Group 2708" transform="translate(19182 6670)">
    <g id="Phone" transform="translate(-19173 -6664)">
      <g transform="matrix(1, 0, 0, 1, -9, -6)" filter="url(#BG)">
        <rect id="BG-2" data-name="BG" width="48" height="34" rx="3" transform="translate(9 6)" fill="#e45d6f"/>
      </g>
    </g>
    <g id="Group_2196" data-name="Group 2196" transform="translate(-19158.639 -6656.134)">
      <path id="Path_2198" data-name="Path 2198" d="M1.429,0a1.791,1.791,0,0,0-1,.523A1.614,1.614,0,0,0,.5,2.795c.156.163.319.32.479.48l6.2,6.2c.049.048.1.089.227.193a1.154,1.154,0,0,0-.225.132Q3.875,13.1.569,16.41a1.679,1.679,0,0,0-.541,1.528,1.616,1.616,0,0,0,2.571.994,3.075,3.075,0,0,0,.253-.224q3.921-3.918,7.84-7.836a1.585,1.585,0,0,0,.459-1.762,1.908,1.908,0,0,0-.433-.669Q6.777,4.477,2.819.53A1.959,1.959,0,0,0,1.805,0Z" transform="translate(8.021)" fill="#fff3f5"/>
      <path id="Path_2199" data-name="Path 2199" d="M0,15.364a2.314,2.314,0,0,0,.4.9,1.562,1.562,0,0,0,2.242.224c.368-.329.7-.7,1.04-1.06Q6.39,12.576,9.094,9.721a1.777,1.777,0,0,0,.311-2.162,1.929,1.929,0,0,0-.3-.4Q5.978,3.856,2.847.562A1.562,1.562,0,0,0,.8.251,1.671,1.671,0,0,0,.035,1.385c-.009.042-.023.084-.035.125v.414A2.457,2.457,0,0,0,.775,3.26Q3.18,5.775,5.568,8.306c.038.04.072.082.115.131l-.159.171Q3.154,11.1.782,13.6A2.553,2.553,0,0,0,0,14.912Z" transform="translate(0 1.614)" fill="#ffe2e2"/>
    </g>
  </g>
</svg>
